<svg xmlns="http://www.w3.org/2000/svg" viewBox="0 0 678.44 167.99"><g id="Capa_2" data-name="Capa 2"><g id="Capa_1-2" data-name="Capa 1"><path d="M221.78,162.43c-.19.83-1.05,4.12-1.37,5.08H204.89v-.89c3-.23,3.19-.51,3.19-3.13V150.87c0-2.84-.35-3-2.74-3.22v-.9h9.77c3,0,4.25,0,4.63-.06,0,.8.16,3.19.29,4.89l-1,.16a10.75,10.75,0,0,0-1-2.43c-.51-1.06-1.24-1.28-3.16-1.28h-3c-1,0-1.06.1-1.06,1v7.06h3.55c2.39,0,2.55-.48,2.93-2.65h1V160h-1c-.41-2.3-.67-2.62-3-2.62h-3.52v6.36c0,2.23.7,2.42,2.3,2.45h3c2,0,2.27-.28,3-1.11a13.65,13.65,0,0,0,1.73-2.94Z" transform="translate(-5.36)"/><path d="M257.43,151.61c-.54-2.11-1.43-4.19-4.44-4.19a3.18,3.18,0,0,0-3.35,3.48c0,2.21,1.4,3.33,4.06,4.7,3.83,2,5.49,3.45,5.49,6.48,0,3.36-2.91,5.91-7,5.91a13.34,13.34,0,0,1-4.88-1.05,44.22,44.22,0,0,1-.87-4.79l1-.26c.64,2.14,2,4.92,5.37,4.92a3.51,3.51,0,0,0,3.7-3.67c0-2.46-1.3-3.45-4.11-5-3.36-1.82-5.24-3.35-5.24-6.32s2.36-5.52,6.58-5.52a21.15,21.15,0,0,1,4.21.6c.13,1.15.26,2.43.51,4.51Z" transform="translate(-5.36)"/><path d="M292.63,146.75a9,9,0,0,1,5.4,1.38,5.37,5.37,0,0,1,2.11,4.53c0,4.66-4,6.55-7,6.55a4.62,4.62,0,0,1-.86-.07l-2.2-.57v5c0,2.68.22,2.75,3.16,3.07v.89h-8.82v-.89c2.75-.29,2.88-.48,2.88-3.13V150.81c0-2.84-.35-2.91-2.88-3.16v-.9Zm-2.58,10.7a5.77,5.77,0,0,0,2.33.42c2.14,0,4.79-1.09,4.79-5.11,0-3.52-2.3-4.92-5-4.92a2.87,2.87,0,0,0-1.79.38c-.26.23-.35.61-.35,1.47Z" transform="translate(-5.36)"/><path d="M341.7,162.43c-.2.83-1.06,4.12-1.38,5.08H324.8v-.89c3-.23,3.2-.51,3.2-3.13V150.87c0-2.84-.36-3-2.75-3.22v-.9H335c3,0,4.25,0,4.63-.06,0,.8.16,3.19.29,4.89l-1,.16a10.3,10.3,0,0,0-1-2.43c-.51-1.06-1.24-1.28-3.16-1.28h-3c-1,0-1.06.1-1.06,1v7.06h3.55c2.39,0,2.55-.48,2.94-2.65h1V160h-1c-.42-2.3-.67-2.62-3-2.62h-3.52v6.36c0,2.23.71,2.42,2.3,2.45h3c1.95,0,2.27-.28,3-1.11a13.65,13.65,0,0,0,1.73-2.94Z" transform="translate(-5.36)"/><path d="M385.42,162.4a39.34,39.34,0,0,1-1.75,4.82,28.52,28.52,0,0,1-5.85.77c-7.63,0-11.53-5.08-11.53-10.67,0-6.51,4.95-11,12.11-11a32.63,32.63,0,0,1,6,.73c.13,1.44.36,3.35.61,5l-1,.22c-.64-2.14-1.4-3.45-3-4.12a8.81,8.81,0,0,0-3.36-.6c-5.27,0-8,3.89-8,9.16,0,6.17,3.19,10.13,8.36,10.13,3.26,0,4.86-1.5,6.49-4.7Z" transform="translate(-5.36)"/><path d="M410.57,167.51v-.89c2.62-.29,2.87-.42,2.87-3.13V150.81c0-2.75-.25-2.88-2.87-3.16v-.9h8.56v.9c-2.65.28-2.91.41-2.91,3.16v12.68c0,2.74.26,2.84,2.91,3.13v.89Z" transform="translate(-5.36)"/><path d="M455.06,167.51v-.89c2.08-.26,2.33-.58,1.88-1.79s-1.05-2.84-1.72-4.86h-6.9c-.51,1.44-1,2.69-1.44,4-.7,2.07-.25,2.33,2.37,2.65v.89h-7.38v-.89c2-.26,2.52-.48,3.64-3.36l6.61-16.76,1-.19c2,5.46,4.22,11.49,6.23,17,1,2.78,1.31,3,3.58,3.29v.89Zm-3.19-17c-1,2.75-2.11,5.65-3.07,8.18h6Z" transform="translate(-5.36)"/><path d="M502.11,162.21c-.19,1-1.15,4.31-1.47,5.3H485.79v-.89c2.91-.29,3.16-.45,3.16-3.16V150.78c0-2.72-.32-2.88-2.87-3.13v-.9h8.56v.9c-2.56.25-2.91.38-2.91,3.13v13c0,1.94.26,2.39,2.08,2.42l2.52,0c1.63,0,2.11-.19,2.84-1a10.77,10.77,0,0,0,1.95-3.28Z" transform="translate(-5.36)"/><path d="M75.2,85.23a146.7,146.7,0,0,1-6.41,17.6c-3.38.7-12.48,2.8-21.34,2.8-27.86,0-42.09-18.54-42.09-38.94,0-23.78,18.08-40.22,44.19-40.22,10,0,18.19,2.1,22,2.68.46,5.24,1.28,12.24,2.21,18.07L70.19,48c-2.33-7.82-5.13-12.6-11.08-15a31.86,31.86,0,0,0-12.24-2.22C27.63,30.78,17.49,45,17.49,64.24c0,22.51,11.66,37,30.55,37,11.89,0,17.72-5.48,23.67-17.14Z" transform="translate(-5.36)"/><path d="M126,26.47c19.93,0,37.77,15.27,37.77,38.47,0,25.07-17,40.69-38.48,40.69-22.38,0-38.7-17-38.7-38.94C86.63,45.82,101.43,26.47,126,26.47Zm-2.34,4.31c-13.06,0-25,11-25,32.76s11.89,37.66,28.45,37.66c14.11,0,24.72-10.49,24.72-33C151.92,43.72,139,30.78,123.7,30.78Z" transform="translate(-5.36)"/><path d="M233.65,84.53c-.7,3.61-4.2,15.74-5.36,19.35H174.07v-3.26c10.61-1.05,11.54-1.63,11.54-11.54V42.79c0-9.91-1.16-10.49-10.49-11.43V28.1h31.25v3.26c-9.33.94-10.61,1.4-10.61,11.43V90.24c0,7.11.93,8.75,7.57,8.86l9.21.12c6,0,7.7-.7,10.38-3.61,2.92-3,5.37-7.7,7.11-12Z" transform="translate(-5.36)"/><path d="M301.85,85.35c-.7,3-3.84,15-5,18.53H240.18v-3.26c10.84-.82,11.66-1.87,11.66-11.43v-46c0-10.38-1.29-11-10-11.78V28.1h35.68c11,0,15.5-.12,16.9-.23.12,2.91.59,11.65,1.05,17.83l-3.5.59a38.92,38.92,0,0,0-3.49-8.86c-1.87-3.85-4.55-4.67-11.55-4.67H265.83c-3.62,0-3.85.35-3.85,3.73V62.26h12.94c8.75,0,9.33-1.75,10.73-9.68h3.61v24h-3.61C284.13,68.21,283.2,67,274.8,67H262v23.2c0,8.16,2.56,8.86,8.4,9h10.84c7.11,0,8.28-1,10.84-4.08,2.22-2.45,4.66-7.23,6.3-10.73Z" transform="translate(-5.36)"/><path d="M380,85.23a146.7,146.7,0,0,1-6.41,17.6c-3.38.7-12.48,2.8-21.34,2.8-27.86,0-42.09-18.54-42.09-38.94,0-23.78,18.07-40.22,44.19-40.22,10,0,18.19,2.1,22,2.68.46,5.24,1.28,12.24,2.21,18.07L375,48c-2.34-7.82-5.13-12.6-11.08-15a31.86,31.86,0,0,0-12.24-2.22c-19.24,0-29.38,14.22-29.38,33.46,0,22.51,11.66,37,30.54,37,11.9,0,17.73-5.48,23.67-17.14Z" transform="translate(-5.36)"/><path d="M461.23,85.23a146.7,146.7,0,0,1-6.41,17.6c-3.38.7-12.47,2.8-21.34,2.8-27.86,0-42.09-18.54-42.09-38.94,0-23.78,18.08-40.22,44.19-40.22,10,0,18.19,2.1,22,2.68.46,5.24,1.28,12.24,2.21,18.07l-3.61.82c-2.33-7.82-5.13-12.6-11.08-15a31.86,31.86,0,0,0-12.24-2.22c-19.24,0-29.38,14.22-29.38,33.46,0,22.51,11.66,37,30.55,37,11.89,0,17.72-5.48,23.67-17.14Z" transform="translate(-5.36)"/><path d="M472.43,103.88v-3.26c9.56-1.05,10.49-1.52,10.49-11.43V42.91c0-10-.93-10.5-10.49-11.55V28.1h31.24v3.26c-9.67,1-10.61,1.52-10.61,11.55V89.19c0,10,.94,10.38,10.61,11.43v3.26Z" transform="translate(-5.36)"/><path d="M554.15,26.47c19.94,0,37.78,15.27,37.78,38.47,0,25.07-17,40.69-38.47,40.69-22.39,0-38.71-17-38.71-38.94C514.75,45.82,529.55,26.47,554.15,26.47Zm-2.33,4.31c-13.06,0-25,11-25,32.76s11.89,37.66,28.45,37.66c14.11,0,24.72-10.49,24.72-33C580,43.72,567.1,30.78,551.82,30.78ZM547,17.84,566.4,0c2.44.58,7.11,4.55,8.27,6.3l-.11.93L549.37,20.75Z" transform="translate(-5.36)"/><path d="M683.8,31.36c-7.46.82-9.91,2-10.26,7.35-.11,3.73-.35,8.63-.35,19.47v46.75h-4.43l-49.9-61V73.1c0,10.5.35,15.74.59,19.12.23,6,3.14,7.7,11.54,8.4v3.26H602.66v-3.26c7.22-.58,10-2.33,10.49-8.05.35-3.73.58-9,.58-19.58V43.26c0-3.27-.23-5.13-2.33-7.7-2.21-2.91-4.66-3.61-10.38-4.2V28.1h17.49L668,86.75V58.18c0-10.84-.24-15.86-.59-19.35-.35-5.25-3-6.88-12.35-7.47V28.1H683.8Z" transform="translate(-5.36)"/></g></g></svg>