<svg xmlns="http://www.w3.org/2000/svg" viewBox="0 0 1365.3 395.07"><defs><style>.cls-1{fill:#303030;}.cls-2{fill:#fff;}</style></defs><g id="Capa_2" data-name="Capa 2"><g id="Capa_3" data-name="Capa 3"><rect class="cls-1" width="1365.3" height="395.07"/><path class="cls-2" d="M107.49,182.67c-3,.68-3.25,1.18-3.34,4.05,0,1.1-.12,1.86-.12,5.54v17.82h-.68l-19-23.36v12.13c0,4.05.08,5.36.12,6.71.09,2.45.76,3,4.06,3.55v.51H79v-.51c3.13-.72,3.8-1.1,3.89-3.59,0-1.1.12-2.66.12-6.67V186.34a2.47,2.47,0,0,0-.59-1.77,5.66,5.66,0,0,0-3.84-1.9v-.51h5.91l18.21,22.09v-12c0-3.68,0-4.27-.13-5.71-.17-2.7-.72-3.46-4.22-3.88v-.51h9.12Z"/><path class="cls-2" d="M127.13,208.64a21.67,21.67,0,0,0-5.66,1.48c0-.63.13-2.11.13-3.29-2,1.94-4,3.25-6,3.29-2.62,0-4.81-1.56-4.81-5.74v-8.91c0-1.82-.59-2.2-1.69-2.45l-.76-.17v-.47a41.08,41.08,0,0,0,5.28-.71c-.09.84-.13,2.15-.13,5.7v5.74c0,3.8,1.78,4.82,3.63,4.82a5.57,5.57,0,0,0,4.48-2v-10c0-2.24-.51-2.57-2.07-2.87l-1-.17v-.51a32.7,32.7,0,0,0,5.79-.71v13.6c0,2.32.33,2.53,1.77,2.7l1,.13Z"/><path class="cls-2" d="M143.27,206.07c-2.45,3.12-5.11,4.05-6.29,4.05-5,0-7.86-4.18-7.86-8.78a10.11,10.11,0,0,1,2.54-7,8.49,8.49,0,0,1,5.87-2.92,5.8,5.8,0,0,1,5.83,5.62c0,.63-.05,1-.22,1.06-.8.29-5.74.55-11.4.63-.13,6.76,3.59,9,6.59,9a6.57,6.57,0,0,0,4.6-2.15Zm-6.93-13.48c-2.07,0-3.92,1.57-4.47,5.07a78.75,78.75,0,0,0,8.15-.12c.21,0,.29-.26.29-.68C140.31,194.79,139.09,192.59,136.34,192.59Z"/><path class="cls-2" d="M156.28,196.31c-.76-2.95-2.36-4-4.31-4a2.59,2.59,0,0,0-2.78,2.87c0,2.07,1.47,3,3.5,4,3,1.48,4.69,2.83,4.69,5.41,0,3.42-3,5.53-6.17,5.53a11.57,11.57,0,0,1-4.09-.8,42.78,42.78,0,0,1-.85-4.43l.51-.13c.67,2.45,2.28,4.52,5.07,4.52A2.89,2.89,0,0,0,155,206.2c0-2-1.22-3.09-3.29-4.23-2.45-1.39-4.65-2.66-4.69-5.49s2.36-5,5.79-5a24.45,24.45,0,0,1,3.54.43c.05.8.43,3.59.51,4.26Z"/><path class="cls-2" d="M167,209.7a3,3,0,0,1-1.31.42c-2.49,0-3.71-1.69-3.71-4.81V193.1H159.2l-.09-.17.51-1H162v-4c.71-.63,1.81-1.61,2.53-2.41l.29,0c0,.76-.12,3-.12,6.38h4.52a1.5,1.5,0,0,1-.26,1.14h-4.26v11c0,3.47,1.22,4.14,2.62,4.14a5.14,5.14,0,0,0,2.4-.63l.17.55Z"/><path class="cls-2" d="M179.85,209.62h-8.61v-.51c2.45-.38,2.61-.59,2.61-3.68V197c0-2.71,0-3-2.15-3.47v-.42a18,18,0,0,0,5-1.77c0,.76,0,3-.13,4.56,1-1.78,3.17-4.4,5.11-4.4a1.92,1.92,0,0,1,2.07,1.65,2.51,2.51,0,0,1-1.05,1.94.7.7,0,0,1-1,0,2.66,2.66,0,0,0-1.9-1c-.84,0-2.15.93-3.25,3v8.4c0,3,.21,3.21,3.25,3.68Z"/><path class="cls-2" d="M197.85,210.12a2.82,2.82,0,0,1-1.9-.84,3.2,3.2,0,0,1-.93-1.9c-1.52,1.1-3.72,2.74-4.69,2.74a4.68,4.68,0,0,1-4.65-4.64c0-1.9,1-3,3-3.72,2.28-.8,5.28-1.73,6.38-2.49V198c0-3-1.48-5-3.76-5a2.43,2.43,0,0,0-1.86.77,7.91,7.91,0,0,0-1.14,2.66.84.84,0,0,1-.8.67,1.62,1.62,0,0,1-1.48-1.48c0-.33.3-.67,1-1.22a20,20,0,0,1,5.79-2.92,5.13,5.13,0,0,1,3.08,1c1.4,1.27,1.82,2.66,1.82,5.15v7.56c0,2,.68,2.7,1.48,2.7a1.93,1.93,0,0,0,1.31-.42l.25.55ZM195.06,200c-.72.46-2.91,1.31-4.06,1.86-1.39.63-2.4,1.43-2.4,3a3.06,3.06,0,0,0,3.08,3.17,4.59,4.59,0,0,0,3.3-1.43C195,204.55,195.06,202.22,195.06,200Z"/><path class="cls-2" d="M236.39,209.62v-.51c2.71-.38,2.75-.68,2.75-4.1v-6.54c0-2.67-.68-4.95-3.63-4.95a6.43,6.43,0,0,0-4.48,2.07,9.73,9.73,0,0,1,.13,1.86v8.07c0,2.91.17,3.17,2.53,3.59v.51h-7.94v-.51c2.45-.42,2.66-.72,2.66-3.59v-7.1c0-3.12-.84-4.94-3.67-4.94a6.71,6.71,0,0,0-4.31,2.07v9.84c0,3,.08,3.3,2.7,3.72v.51H214.9v-.51c2.66-.34,2.78-.72,2.78-3.68V197c0-2.79-.16-3-2.15-3.47v-.42a16.63,16.63,0,0,0,5-1.77c-.08,1.52-.08,2.7-.08,3.33.8-.55,1.69-1.26,2.74-2a6.09,6.09,0,0,1,3.3-1.19c1.86,0,3.46.89,4.35,3.34a39.68,39.68,0,0,1,3.46-2.41,5.07,5.07,0,0,1,2.83-.93c3,0,4.73,2.37,4.73,6.13v7.69c0,3.29.21,3.42,2.45,3.84v.51Z"/><path class="cls-2" d="M246.41,209.62v-.51c2.62-.42,2.79-.63,2.79-3.68V197c0-2.88-.17-3.09-2.41-3.51V193a23,23,0,0,0,5.24-1.65c-.05.84-.09,3.34-.09,5.24v8.78c0,3.13.26,3.3,2.79,3.72v.51Zm4-23.66a1.84,1.84,0,0,1-1.78-1.77,1.81,1.81,0,0,1,1.82-1.82,1.75,1.75,0,0,1,1.78,1.82A1.8,1.8,0,0,1,250.38,186Z"/><path class="cls-2" d="M266.73,196.31c-.76-2.95-2.37-4-4.31-4a2.6,2.6,0,0,0-2.79,2.87c0,2.07,1.48,3,3.51,4,2.95,1.48,4.68,2.83,4.68,5.41,0,3.42-3,5.53-6.16,5.53a11.68,11.68,0,0,1-4.1-.8,43,43,0,0,1-.84-4.43l.5-.13c.68,2.45,2.28,4.52,5.07,4.52a2.9,2.9,0,0,0,3.13-3.08c0-2-1.23-3.09-3.3-4.23-2.45-1.39-4.64-2.66-4.69-5.49s2.37-5,5.79-5a24.64,24.64,0,0,1,3.55.43c0,.8.42,3.59.51,4.26Z"/><path class="cls-2" d="M270.36,209.62v-.51c2.62-.42,2.79-.63,2.79-3.68V197c0-2.88-.17-3.09-2.41-3.51V193a23,23,0,0,0,5.24-1.65c0,.84-.09,3.34-.09,5.24v8.78c0,3.13.26,3.3,2.79,3.72v.51Zm4-23.66a1.83,1.83,0,0,1-1.77-1.77,1.8,1.8,0,0,1,1.81-1.82,1.75,1.75,0,0,1,1.78,1.82A1.8,1.8,0,0,1,274.33,186Z"/><path class="cls-2" d="M289.54,191.45c5,0,8.53,4.06,8.53,9,0,6.38-4.6,9.67-8.57,9.67a8.76,8.76,0,0,1-8.66-9C280.84,194.5,286,191.45,289.54,191.45Zm-.51.89c-3,0-5,3.17-5,7.48,0,5.66,2.53,9.33,6,9.33,2.67,0,4.82-2,4.82-7.94C294.86,196.65,292.87,192.34,289,192.34Zm-.8-4.18,4.39-6.46a15.94,15.94,0,0,1,3.17-.34l.08.21-7.18,7Z"/><path class="cls-2" d="M311.55,209.62v-.51c2.61-.34,2.78-.63,2.78-3.93v-6.59c0-2.57-.8-5.07-3.8-5.07a7.06,7.06,0,0,0-4.56,2v9.84c0,3.09.3,3.3,2.7,3.72v.51h-8.23v-.51c2.66-.38,2.79-.76,2.79-3.68V196.9c0-2.62-.13-2.87-2.16-3.42v-.42a16.14,16.14,0,0,0,5-1.77c-.05.76-.13,1.9-.09,3.42.8-.64,1.82-1.35,2.87-2.07a5.92,5.92,0,0,1,3.17-1.19c3.21,0,5.07,2.45,5.07,6.25v7.82c0,3,.25,3.21,2.41,3.59v.51Z"/><path class="cls-2" d="M349.71,206.07c-2.45,3.12-5.11,4.05-6.29,4.05-5,0-7.86-4.18-7.86-8.78a10.11,10.11,0,0,1,2.54-7,8.51,8.51,0,0,1,5.87-2.92,5.8,5.8,0,0,1,5.83,5.62c0,.63,0,1-.21,1.06-.81.29-5.75.55-11.41.63-.12,6.76,3.59,9,6.59,9a6.59,6.59,0,0,0,4.61-2.15Zm-6.92-13.48c-2.07,0-3.93,1.57-4.48,5.07a78.69,78.69,0,0,0,8.15-.12c.21,0,.3-.26.3-.68C346.76,194.79,345.53,192.59,342.79,192.59Z"/><path class="cls-2" d="M363.27,209.62v-.51c2.62-.34,2.79-.63,2.79-3.93v-6.59c0-2.57-.8-5.07-3.8-5.07a7,7,0,0,0-4.56,2v9.84c0,3.09.29,3.3,2.7,3.72v.51h-8.23v-.51c2.66-.38,2.78-.76,2.78-3.68V196.9c0-2.62-.12-2.87-2.15-3.42v-.42a16.08,16.08,0,0,0,5-1.77c0,.76-.12,1.9-.08,3.42.8-.64,1.81-1.35,2.87-2.07a5.92,5.92,0,0,1,3.17-1.19c3.21,0,5.07,2.45,5.07,6.25v7.82c0,3,.25,3.21,2.4,3.59v.51Z"/><path class="cls-2" d="M401.78,209.62v-.51c2.32-.42,3-.76,2.45-2.28-.55-1.82-1.61-4.9-2.87-8.41h-8.49c-.93,2.71-1.73,4.86-2.37,6.89-.93,2.87-.29,3.17,2.92,3.8v.51h-8.83v-.51c2.37-.42,3.08-.72,4.65-4.69L398,181.66l.59-.09c2.62,7.69,5.37,15.42,8.2,23.27,1.31,3.68,1.81,3.68,4.47,4.27v.51Zm-4.56-23.19c-1.35,3.59-2.62,7.26-3.93,10.77H401Z"/><path class="cls-2" d="M420,191.75a3.57,3.57,0,0,1,1.35-.3c4.27,0,7.86,3.38,7.86,8.45a10.09,10.09,0,0,1-10.05,10.22,16.52,16.52,0,0,1-5.71-1.35c.09-1.05.09-2.15.09-3.21V184.82c0-2.91-.17-3.33-2.75-3.8v-.46a21.27,21.27,0,0,0,5.58-1.44c-.09,1.23-.13,3.84-.13,5.53v8.75Zm-3.76,13.35a4.14,4.14,0,0,0,.21,1.52c.34,1,2.11,2.24,4.56,2.24,3.59,0,5.07-3.21,5.07-7.78s-2.66-7.64-6.5-7.64a7.93,7.93,0,0,0-3.34.63Z"/><path class="cls-2" d="M444.57,210.12a2.82,2.82,0,0,1-1.9-.84,3.26,3.26,0,0,1-.93-1.9c-1.52,1.1-3.72,2.74-4.69,2.74a4.67,4.67,0,0,1-4.64-4.64c0-1.9,1-3,3-3.72,2.28-.8,5.28-1.73,6.37-2.49V198c0-3-1.47-5-3.76-5a2.39,2.39,0,0,0-1.85.77A7.53,7.53,0,0,0,435,196.4a.85.85,0,0,1-.81.67,1.61,1.61,0,0,1-1.47-1.48c0-.33.29-.67,1-1.22a19.9,19.9,0,0,1,5.79-2.92,5.15,5.15,0,0,1,3.08,1c1.39,1.27,1.81,2.66,1.81,5.15v7.56c0,2,.68,2.7,1.48,2.7a1.93,1.93,0,0,0,1.31-.42l.26.55ZM441.78,200c-.71.46-2.91,1.31-4,1.86-1.39.63-2.41,1.43-2.41,3A3.07,3.07,0,0,0,438.4,208a4.58,4.58,0,0,0,3.3-1.43C441.7,204.55,441.78,202.22,441.78,200Z"/><path class="cls-2" d="M460.16,209.62v-.51c2.62-.34,2.79-.63,2.79-3.93v-6.59c0-2.57-.81-5.07-3.8-5.07a7.08,7.08,0,0,0-4.57,2v9.84c0,3.09.3,3.3,2.71,3.72v.51h-8.24v-.51c2.66-.38,2.79-.76,2.79-3.68V196.9c0-2.62-.13-2.87-2.16-3.42v-.42a16,16,0,0,0,5-1.77c0,.76-.13,1.9-.09,3.42.81-.64,1.82-1.35,2.88-2.07a5.86,5.86,0,0,1,3.16-1.19c3.21,0,5.07,2.45,5.07,6.25v7.82c0,3,.26,3.21,2.41,3.59v.51Z"/><path class="cls-2" d="M489.43,208.6a26.71,26.71,0,0,0-5.78,1.52c0-.93.08-1.94.08-2.87-1.1.72-2.45,1.56-3.59,2.16a5.57,5.57,0,0,1-2.28.71c-3.17,0-7.22-3.21-7.22-8.74a10.18,10.18,0,0,1,10.18-9.93,9.62,9.62,0,0,1,2.91.38v-7.34c0-2.75-.21-3.21-3.17-3.55v-.47a22.11,22.11,0,0,0,6.09-1.35c-.09.89-.17,3.63-.17,5.28V205c0,2.11.29,2.7,1.77,3l1.18.21Zm-5.7-13.85c-1-1.44-3-2-4.81-2-2.37,0-5.24,1.4-5.24,7.31,0,5.19,3,8,5.91,8a6.12,6.12,0,0,0,4.14-1.56Z"/><path class="cls-2" d="M510.22,208.6a26.77,26.77,0,0,0-5.79,1.52c0-.93.08-1.94.08-2.87-1.09.72-2.45,1.56-3.59,2.16a5.49,5.49,0,0,1-2.28.71c-3.16,0-7.22-3.21-7.22-8.74a10.19,10.19,0,0,1,10.18-9.93,9.59,9.59,0,0,1,2.91.38v-7.34c0-2.75-.21-3.21-3.16-3.55v-.47a22.12,22.12,0,0,0,6.08-1.35c-.09.89-.17,3.63-.17,5.28V205c0,2.11.29,2.7,1.77,3l1.19.21Zm-5.71-13.85c-1-1.44-2.95-2-4.81-2-2.37,0-5.24,1.4-5.24,7.31,0,5.19,3,8,5.91,8a6.11,6.11,0,0,0,4.14-1.56Z"/><path class="cls-2" d="M520.9,191.45c5,0,8.54,4.06,8.54,9,0,6.38-4.61,9.67-8.58,9.67a8.76,8.76,0,0,1-8.66-9C512.2,194.5,517.4,191.45,520.9,191.45Zm-.5.89c-3,0-5,3.17-5,7.48,0,5.66,2.54,9.33,6,9.33,2.66,0,4.82-2,4.82-7.94C526.23,196.65,524.24,192.34,520.4,192.34Z"/><path class="cls-2" d="M542.91,209.62v-.51c2.62-.34,2.79-.63,2.79-3.93v-6.59c0-2.57-.8-5.07-3.8-5.07a7,7,0,0,0-4.56,2v9.84c0,3.09.29,3.3,2.7,3.72v.51H531.8v-.51c2.66-.38,2.79-.76,2.79-3.68V196.9c0-2.62-.13-2.87-2.15-3.42v-.42a16.08,16.08,0,0,0,5-1.77c0,.76-.13,1.9-.08,3.42.8-.64,1.81-1.35,2.87-2.07a5.86,5.86,0,0,1,3.17-1.19c3.21,0,5.06,2.45,5.06,6.25v7.82c0,3,.26,3.21,2.41,3.59v.51Z"/><path class="cls-2" d="M581.08,206.07c-2.45,3.12-5.11,4.05-6.29,4.05-5,0-7.86-4.18-7.86-8.78a10.11,10.11,0,0,1,2.54-7,8.49,8.49,0,0,1,5.87-2.92,5.79,5.79,0,0,1,5.82,5.62c0,.63,0,1-.21,1.06-.8.29-5.74.55-11.4.63-.13,6.76,3.59,9,6.59,9a6.57,6.57,0,0,0,4.6-2.15Zm-6.93-13.48c-2.07,0-3.92,1.57-4.47,5.07a78.75,78.75,0,0,0,8.15-.12c.21,0,.29-.26.29-.68C578.12,194.79,576.9,192.59,574.15,192.59Z"/><path class="cls-2" d="M594.09,196.31c-.76-2.95-2.36-4-4.31-4a2.6,2.6,0,0,0-2.79,2.87c0,2.07,1.48,3,3.51,4,3,1.48,4.69,2.83,4.69,5.41,0,3.42-3,5.53-6.17,5.53a11.57,11.57,0,0,1-4.09-.8,42.78,42.78,0,0,1-.85-4.43l.51-.13c.67,2.45,2.28,4.52,5.07,4.52a2.89,2.89,0,0,0,3.12-3.08c0-2-1.22-3.09-3.29-4.23-2.45-1.39-4.65-2.66-4.69-5.49s2.36-5,5.78-5a24.44,24.44,0,0,1,3.55.43c0,.8.43,3.59.51,4.26Z"/><path class="cls-2" d="M624.65,206.07c-2.44,3.12-5.11,4.05-6.29,4.05-5,0-7.85-4.18-7.85-8.78a10.1,10.1,0,0,1,2.53-7,8.53,8.53,0,0,1,5.87-2.92,5.8,5.8,0,0,1,5.83,5.62c0,.63,0,1-.21,1.06-.8.29-5.75.55-11.41.63-.12,6.76,3.59,9,6.59,9a6.59,6.59,0,0,0,4.61-2.15Zm-6.92-13.48c-2.07,0-3.93,1.57-4.48,5.07a78.62,78.62,0,0,0,8.15-.12c.21,0,.3-.26.3-.68C621.7,194.79,620.47,192.59,617.73,192.59Z"/><path class="cls-2" d="M626.64,209.62v-.51c2.45-.38,2.79-.59,2.79-3.72V185.08c0-3.38-.21-3.64-2.7-4v-.5a19.9,19.9,0,0,0,5.53-1.44c0,1.1-.13,3-.13,5.87v20.4c0,3,.17,3.3,2.71,3.72v.51Z"/><path class="cls-2" d="M651.27,206.07c-2.45,3.12-5.11,4.05-6.3,4.05-5,0-7.85-4.18-7.85-8.78a10.1,10.1,0,0,1,2.53-7,8.53,8.53,0,0,1,5.87-2.92,5.8,5.8,0,0,1,5.83,5.62c0,.63,0,1-.21,1.06-.8.29-5.74.55-11.4.63-.13,6.76,3.59,9,6.59,9a6.57,6.57,0,0,0,4.6-2.15Zm-6.93-13.48c-2.07,0-3.93,1.57-4.48,5.07a78.89,78.89,0,0,0,8.16-.12c.21,0,.29-.26.29-.68C648.31,194.79,647.09,192.59,644.34,192.59Z"/><path class="cls-2" d="M671.8,192.47c-2.07.42-2.58.84-3.59,3.29-1.36,3.25-4.52,11.15-5.79,14.36h-.55c-1.31-3.67-3.51-9.37-5.53-14.57-.93-2.32-1.14-2.7-3.25-3.08V192h7.56v.51c-2.12.46-2.16.84-1.61,2.45,1.1,3.25,2.7,7.35,4.06,10.85,1.6-4,3.08-7.94,4-10.47.76-2.16.29-2.37-2.2-2.83V192h6.93Z"/><path class="cls-2" d="M684.89,210.12a2.82,2.82,0,0,1-1.9-.84,3.26,3.26,0,0,1-.93-1.9c-1.52,1.1-3.71,2.74-4.69,2.74a4.67,4.67,0,0,1-4.64-4.64c0-1.9,1-3,3-3.72,2.28-.8,5.28-1.73,6.37-2.49V198c0-3-1.47-5-3.75-5a2.4,2.4,0,0,0-1.86.77,7.53,7.53,0,0,0-1.14,2.66.85.85,0,0,1-.81.67,1.61,1.61,0,0,1-1.47-1.48c0-.33.29-.67,1-1.22a19.9,19.9,0,0,1,5.79-2.92,5.15,5.15,0,0,1,3.08,1c1.39,1.27,1.82,2.66,1.82,5.15v7.56c0,2,.67,2.7,1.47,2.7a1.93,1.93,0,0,0,1.31-.42l.26.55ZM682.1,200c-.71.46-2.91,1.31-4.05,1.86-1.39.63-2.41,1.43-2.41,3a3.07,3.07,0,0,0,3.09,3.17,4.57,4.57,0,0,0,3.29-1.43C682,204.55,682.1,202.22,682.1,200Z"/><path class="cls-2" d="M698.16,209.62h-8.62v-.51c2.45-.38,2.62-.59,2.62-3.68V197c0-2.71,0-3-2.16-3.47v-.42a17.75,17.75,0,0,0,5-1.77c0,.76,0,3-.13,4.56,1-1.78,3.17-4.4,5.11-4.4a1.92,1.92,0,0,1,2.07,1.65A2.51,2.51,0,0,1,701,195a.69.69,0,0,1-1,0,2.68,2.68,0,0,0-1.9-1c-.85,0-2.16.93-3.26,3v8.4c0,3,.22,3.21,3.26,3.68Z"/><path class="cls-2" d="M715.5,209.62v-.51c2.45-.38,2.79-.59,2.79-3.72V185.08c0-3.38-.21-3.64-2.71-4v-.5a19.88,19.88,0,0,0,5.54-1.44c0,1.1-.13,3-.13,5.87v20.4c0,3,.17,3.3,2.7,3.72v.51Z"/><path class="cls-2" d="M734.68,191.45c5,0,8.53,4.06,8.53,9,0,6.38-4.6,9.67-8.57,9.67a8.76,8.76,0,0,1-8.66-9C726,194.5,731.17,191.45,734.68,191.45Zm-.51.89c-3,0-5,3.17-5,7.48,0,5.66,2.53,9.33,6,9.33,2.67,0,4.82-2,4.82-7.94C740,196.65,738,192.34,734.17,192.34Z"/><path class="cls-2" d="M755.88,196.31c-.76-2.95-2.36-4-4.3-4a2.6,2.6,0,0,0-2.79,2.87c0,2.07,1.48,3,3.5,4,3,1.48,4.69,2.83,4.69,5.41,0,3.42-3,5.53-6.16,5.53a11.63,11.63,0,0,1-4.1-.8c-.21-.68-.72-3.38-.85-4.43l.51-.13c.68,2.45,2.28,4.52,5.07,4.52a2.9,2.9,0,0,0,3.13-3.08c0-2-1.23-3.09-3.3-4.23-2.45-1.39-4.65-2.66-4.69-5.49s2.37-5,5.79-5a24.64,24.64,0,0,1,3.55.43c0,.8.42,3.59.5,4.26Z"/><path class="cls-2" d="M786.45,206.07c-2.45,3.12-5.11,4.05-6.3,4.05-5,0-7.85-4.18-7.85-8.78a10.1,10.1,0,0,1,2.53-7,8.53,8.53,0,0,1,5.87-2.92,5.8,5.8,0,0,1,5.83,5.62c0,.63,0,1-.21,1.06-.8.29-5.74.55-11.4.63-.13,6.76,3.59,9,6.58,9a6.58,6.58,0,0,0,4.61-2.15Zm-6.93-13.48c-2.07,0-3.93,1.57-4.48,5.07a78.62,78.62,0,0,0,8.15-.12c.22,0,.3-.26.3-.68C783.49,194.79,782.27,192.59,779.52,192.59Z"/><path class="cls-2" d="M799.46,196.31c-.76-2.95-2.37-4-4.31-4a2.6,2.6,0,0,0-2.79,2.87c0,2.07,1.48,3,3.51,4,3,1.48,4.69,2.83,4.69,5.41,0,3.42-3,5.53-6.17,5.53a11.68,11.68,0,0,1-4.1-.8,43,43,0,0,1-.84-4.43l.5-.13c.68,2.45,2.29,4.52,5.07,4.52a2.9,2.9,0,0,0,3.13-3.08c0-2-1.23-3.09-3.3-4.23-2.45-1.39-4.64-2.66-4.68-5.49s2.36-5,5.78-5a24.64,24.64,0,0,1,3.55.43c0,.8.42,3.59.51,4.26Z"/><path class="cls-2" d="M810.19,209.7a3,3,0,0,1-1.31.42c-2.49,0-3.72-1.69-3.72-4.81V193.1h-2.79l-.08-.17.51-1h2.36v-4a33.14,33.14,0,0,0,2.54-2.41l.29,0c0,.76-.13,3-.13,6.38h4.52a1.49,1.49,0,0,1-.25,1.14h-4.27v11c0,3.47,1.23,4.14,2.62,4.14a5.19,5.19,0,0,0,2.41-.63l.17.55Z"/><path class="cls-2" d="M827,210.12a2.82,2.82,0,0,1-1.9-.84,3.26,3.26,0,0,1-.93-1.9c-1.52,1.1-3.72,2.74-4.69,2.74a4.68,4.68,0,0,1-4.65-4.64c0-1.9,1-3,3-3.72,2.28-.8,5.28-1.73,6.38-2.49V198c0-3-1.48-5-3.76-5a2.43,2.43,0,0,0-1.86.77,7.91,7.91,0,0,0-1.14,2.66.84.84,0,0,1-.8.67,1.62,1.62,0,0,1-1.48-1.48c0-.33.3-.67,1-1.22a19.84,19.84,0,0,1,5.78-2.92,5.18,5.18,0,0,1,3.09,1c1.39,1.27,1.81,2.66,1.81,5.15v7.56c0,2,.68,2.7,1.48,2.7a1.93,1.93,0,0,0,1.31-.42l.25.55ZM824.21,200c-.72.46-2.91,1.31-4.05,1.86-1.4.63-2.41,1.43-2.41,3a3.06,3.06,0,0,0,3.08,3.17,4.58,4.58,0,0,0,3.3-1.43C824.13,204.55,824.21,202.22,824.21,200Zm-4.1-11.83,4.4-6.46a15.76,15.76,0,0,1,3.16-.34l.09.21-7.18,7Z"/><path class="cls-2" d="M842.59,209.62v-.51c2.62-.34,2.78-.63,2.78-3.93v-6.59c0-2.57-.8-5.07-3.8-5.07a7.06,7.06,0,0,0-4.56,2v9.84c0,3.09.3,3.3,2.7,3.72v.51h-8.23v-.51c2.66-.38,2.79-.76,2.79-3.68V196.9c0-2.62-.13-2.87-2.16-3.42v-.42a16,16,0,0,0,5-1.77c-.05.76-.13,1.9-.09,3.42.8-.64,1.82-1.35,2.87-2.07a5.92,5.92,0,0,1,3.17-1.19c3.21,0,5.07,2.45,5.07,6.25v7.82c0,3,.25,3.21,2.41,3.59v.51Z"/><path class="cls-2" d="M871.86,208.6a26.77,26.77,0,0,0-5.79,1.52c0-.93.09-1.94.09-2.87-1.1.72-2.45,1.56-3.59,2.16a5.57,5.57,0,0,1-2.28.71c-3.17,0-7.23-3.21-7.23-8.74a10.19,10.19,0,0,1,10.18-9.93,9.65,9.65,0,0,1,2.92.38v-7.34c0-2.75-.21-3.21-3.17-3.55v-.47a22,22,0,0,0,6.08-1.35c-.08.89-.17,3.63-.17,5.28V205c0,2.11.3,2.7,1.78,3l1.18.21Zm-5.7-13.85c-1-1.44-3-2-4.82-2-2.36,0-5.23,1.4-5.23,7.31,0,5.19,3,8,5.91,8a6.12,6.12,0,0,0,4.14-1.56Z"/><path class="cls-2" d="M886.26,210.12a2.84,2.84,0,0,1-1.9-.84,3.26,3.26,0,0,1-.93-1.9c-1.52,1.1-3.71,2.74-4.68,2.74a4.68,4.68,0,0,1-4.65-4.64c0-1.9,1-3,3-3.72,2.28-.8,5.28-1.73,6.38-2.49V198c0-3-1.48-5-3.76-5a2.41,2.41,0,0,0-1.86.77,7.53,7.53,0,0,0-1.14,2.66.85.85,0,0,1-.8.67,1.62,1.62,0,0,1-1.48-1.48c0-.33.29-.67,1-1.22a20,20,0,0,1,5.79-2.92,5.13,5.13,0,0,1,3.08,1c1.4,1.27,1.82,2.66,1.82,5.15v7.56c0,2,.67,2.7,1.48,2.7a1.9,1.9,0,0,0,1.3-.42l.26.55ZM883.48,200c-.72.46-2.92,1.31-4.06,1.86-1.39.63-2.41,1.43-2.41,3A3.07,3.07,0,0,0,880.1,208a4.57,4.57,0,0,0,3.29-1.43C883.39,204.55,883.48,202.22,883.48,200Z"/><path class="cls-2" d="M899.53,209.62h-8.62v-.51c2.45-.38,2.62-.59,2.62-3.68V197c0-2.71,0-3-2.15-3.47v-.42a17.79,17.79,0,0,0,5-1.77c0,.76,0,3-.12,4.56,1-1.78,3.17-4.4,5.11-4.4a1.92,1.92,0,0,1,2.07,1.65A2.52,2.52,0,0,1,902.4,195a.69.69,0,0,1-1,0,2.66,2.66,0,0,0-1.9-1c-.85,0-2.15.93-3.25,3v8.4c0,3,.21,3.21,3.25,3.68Z"/><path class="cls-2" d="M919,206.07c-2.45,3.12-5.11,4.05-6.29,4.05-5,0-7.86-4.18-7.86-8.78a10.15,10.15,0,0,1,2.53-7,8.53,8.53,0,0,1,5.88-2.92,5.79,5.79,0,0,1,5.82,5.62c0,.63,0,1-.21,1.06-.8.29-5.74.55-11.4.63-.13,6.76,3.59,9,6.59,9a6.57,6.57,0,0,0,4.6-2.15ZM912,192.59c-2.07,0-3.93,1.57-4.47,5.07a78.75,78.75,0,0,0,8.15-.12c.21,0,.29-.26.29-.68C916,194.79,914.78,192.59,912,192.59Z"/><path class="cls-2" d="M932,196.31c-.76-2.95-2.36-4-4.31-4a2.6,2.6,0,0,0-2.79,2.87c0,2.07,1.48,3,3.51,4,3,1.48,4.69,2.83,4.69,5.41,0,3.42-3,5.53-6.17,5.53a11.57,11.57,0,0,1-4.09-.8,42.78,42.78,0,0,1-.85-4.43l.51-.13c.67,2.45,2.28,4.52,5.07,4.52a2.89,2.89,0,0,0,3.12-3.08c0-2-1.22-3.09-3.29-4.23-2.45-1.39-4.65-2.66-4.69-5.49s2.36-5,5.79-5a24.45,24.45,0,0,1,3.54.43c0,.8.43,3.59.51,4.26Z"/><path class="cls-2" d="M967.18,208.6a26.77,26.77,0,0,0-5.79,1.52c.05-.93.09-1.94.09-2.87-1.1.72-2.45,1.56-3.59,2.16a5.57,5.57,0,0,1-2.28.71c-3.17,0-7.22-3.21-7.22-8.74a10.18,10.18,0,0,1,10.17-9.93,9.65,9.65,0,0,1,2.92.38v-7.34c0-2.75-.21-3.21-3.17-3.55v-.47a22,22,0,0,0,6.08-1.35c-.08.89-.17,3.63-.17,5.28V205c0,2.11.3,2.7,1.78,3l1.18.21Zm-5.7-13.85c-1-1.44-3-2-4.82-2-2.36,0-5.23,1.4-5.23,7.31,0,5.19,3,8,5.91,8a6.12,6.12,0,0,0,4.14-1.56Z"/><path class="cls-2" d="M983.32,206.07c-2.45,3.12-5.11,4.05-6.3,4.05-5,0-7.85-4.18-7.85-8.78a10.1,10.1,0,0,1,2.53-7,8.53,8.53,0,0,1,5.87-2.92,5.8,5.8,0,0,1,5.83,5.62c0,.63,0,1-.21,1.06-.8.29-5.74.55-11.4.63-.13,6.76,3.59,9,6.59,9a6.57,6.57,0,0,0,4.6-2.15Zm-6.93-13.48c-2.07,0-3.93,1.57-4.48,5.07a78.89,78.89,0,0,0,8.16-.12c.21,0,.29-.26.29-.68C980.36,194.79,979.14,192.59,976.39,192.59Z"/><path class="cls-2" d="M997.83,209.62v-.51c2.45-.38,2.79-.59,2.79-3.72V185.08c0-3.38-.21-3.64-2.7-4v-.5a19.9,19.9,0,0,0,5.53-1.44c0,1.1-.13,3-.13,5.87v20.4c0,3,.17,3.3,2.71,3.72v.51Z"/><path class="cls-2" d="M1020.72,210.12a2.84,2.84,0,0,1-1.9-.84,3.26,3.26,0,0,1-.93-1.9c-1.52,1.1-3.71,2.74-4.68,2.74a4.68,4.68,0,0,1-4.65-4.64c0-1.9,1-3,3-3.72,2.28-.8,5.28-1.73,6.38-2.49V198c0-3-1.48-5-3.76-5a2.41,2.41,0,0,0-1.86.77,7.53,7.53,0,0,0-1.14,2.66.84.84,0,0,1-.8.67,1.62,1.62,0,0,1-1.48-1.48c0-.33.29-.67,1-1.22a20,20,0,0,1,5.79-2.92,5.13,5.13,0,0,1,3.08,1c1.39,1.27,1.82,2.66,1.82,5.15v7.56c0,2,.67,2.7,1.48,2.7a2,2,0,0,0,1.31-.42l.25.55ZM1017.94,200c-.72.46-2.92,1.31-4.06,1.86-1.39.63-2.41,1.43-2.41,3a3.07,3.07,0,0,0,3.09,3.17,4.55,4.55,0,0,0,3.29-1.43C1017.85,204.55,1017.94,202.22,1017.94,200Z"/><path class="cls-2" d="M1059.27,209.62v-.51c2.7-.38,2.75-.68,2.75-4.1v-6.54c0-2.67-.68-4.95-3.64-4.95a6.43,6.43,0,0,0-4.47,2.07,10,10,0,0,1,.12,1.86v8.07c0,2.91.17,3.17,2.54,3.59v.51h-7.94v-.51c2.45-.42,2.66-.72,2.66-3.59v-7.1c0-3.12-.85-4.94-3.68-4.94a6.66,6.66,0,0,0-4.3,2.07v9.84c0,3,.08,3.3,2.7,3.72v.51h-8.24v-.51c2.66-.34,2.79-.72,2.79-3.68V197c0-2.79-.17-3-2.15-3.47v-.42a16.83,16.83,0,0,0,5-1.77c-.08,1.52-.08,2.7-.08,3.33.8-.55,1.69-1.26,2.74-2a6.09,6.09,0,0,1,3.3-1.19c1.85,0,3.46.89,4.35,3.34a39.68,39.68,0,0,1,3.46-2.41,5,5,0,0,1,2.83-.93c3,0,4.73,2.37,4.73,6.13v7.69c0,3.29.21,3.42,2.45,3.84v.51Z"/><path class="cls-2" d="M1078.28,191.45c5,0,8.53,4.06,8.53,9,0,6.38-4.6,9.67-8.57,9.67a8.76,8.76,0,0,1-8.66-9C1069.58,194.5,1074.78,191.45,1078.28,191.45Zm-.51.89c-3,0-5,3.17-5,7.48,0,5.66,2.54,9.33,6,9.33,2.66,0,4.81-2,4.81-7.94C1083.6,196.65,1081.62,192.34,1077.77,192.34Z"/><path class="cls-2" d="M1108.7,208.6a26.77,26.77,0,0,0-5.79,1.52c0-.93.08-1.94.08-2.87-1.09.72-2.45,1.56-3.59,2.16a5.49,5.49,0,0,1-2.28.71c-3.16,0-7.22-3.21-7.22-8.74a10.19,10.19,0,0,1,10.18-9.93,9.59,9.59,0,0,1,2.91.38v-7.34c0-2.75-.21-3.21-3.16-3.55v-.47a22.12,22.12,0,0,0,6.08-1.35c-.09.89-.17,3.63-.17,5.28V205c0,2.11.29,2.7,1.77,3l1.19.21ZM1103,194.75c-1-1.44-3-2-4.81-2-2.37,0-5.24,1.4-5.24,7.31,0,5.19,3,8,5.91,8a6.11,6.11,0,0,0,4.14-1.56Z"/><path class="cls-2" d="M1123.1,210.12a2.82,2.82,0,0,1-1.9-.84,3.26,3.26,0,0,1-.93-1.9c-1.52,1.1-3.72,2.74-4.69,2.74a4.67,4.67,0,0,1-4.64-4.64c0-1.9,1-3,3-3.72,2.29-.8,5.28-1.73,6.38-2.49V198c0-3-1.48-5-3.76-5a2.39,2.39,0,0,0-1.85.77,7.71,7.71,0,0,0-1.15,2.66.83.83,0,0,1-.8.67,1.62,1.62,0,0,1-1.48-1.48c0-.33.3-.67,1-1.22a20,20,0,0,1,5.78-2.92,5.18,5.18,0,0,1,3.09,1c1.39,1.27,1.81,2.66,1.81,5.15v7.56c0,2,.68,2.7,1.48,2.7a1.93,1.93,0,0,0,1.31-.42l.25.55ZM1120.31,200c-.72.46-2.91,1.31-4,1.86-1.4.63-2.41,1.43-2.41,3a3.07,3.07,0,0,0,3.08,3.17,4.58,4.58,0,0,0,3.3-1.43C1120.23,204.55,1120.31,202.22,1120.31,200Z"/><path class="cls-2" d="M1128.47,213.84c1.86-.85,3.21-2.11,3.21-3.8,0-1.23-.93-1.94-2.62-2.37-.13,0-.47-.33-.47-1a1.67,1.67,0,0,1,1.86-1.6c1.27,0,3,1.26,3,3.88,0,2.92-2.57,4.73-4.77,5.49Z"/><path class="cls-2" d="M1168.45,208.6a26.77,26.77,0,0,0-5.79,1.52c0-.93.09-1.94.09-2.87-1.1.72-2.45,1.56-3.59,2.16a5.57,5.57,0,0,1-2.28.71c-3.17,0-7.23-3.21-7.23-8.74a10.19,10.19,0,0,1,10.18-9.93,9.65,9.65,0,0,1,2.92.38v-7.34c0-2.75-.21-3.21-3.17-3.55v-.47a22,22,0,0,0,6.08-1.35c-.08.89-.17,3.63-.17,5.28V205c0,2.11.3,2.7,1.78,3l1.18.21Zm-5.7-13.85c-1-1.44-3-2-4.82-2-2.36,0-5.24,1.4-5.24,7.31,0,5.19,3,8,5.92,8a6.14,6.14,0,0,0,4.14-1.56Z"/><path class="cls-2" d="M1179.14,191.45c5,0,8.53,4.06,8.53,9,0,6.38-4.6,9.67-8.58,9.67a8.76,8.76,0,0,1-8.65-9C1170.44,194.5,1175.63,191.45,1179.14,191.45Zm-.51.89c-3,0-5,3.17-5,7.48,0,5.66,2.53,9.33,6,9.33,2.66,0,4.82-2,4.82-7.94C1184.46,196.65,1182.47,192.34,1178.63,192.34Z"/><path class="cls-2" d="M1201.15,209.62v-.51c2.61-.34,2.78-.63,2.78-3.93v-6.59c0-2.57-.8-5.07-3.8-5.07a7.06,7.06,0,0,0-4.56,2v9.84c0,3.09.3,3.3,2.7,3.72v.51H1190v-.51c2.66-.38,2.79-.76,2.79-3.68V196.9c0-2.62-.13-2.87-2.16-3.42v-.42a16.14,16.14,0,0,0,5-1.77c-.05.76-.13,1.9-.09,3.42.8-.64,1.82-1.35,2.87-2.07a5.92,5.92,0,0,1,3.17-1.19c3.21,0,5.07,2.45,5.07,6.25v7.82c0,3,.25,3.21,2.41,3.59v.51Z"/><path class="cls-2" d="M1230.42,208.6a26.77,26.77,0,0,0-5.79,1.52c0-.93.09-1.94.09-2.87-1.1.72-2.45,1.56-3.59,2.16a5.57,5.57,0,0,1-2.28.71c-3.17,0-7.23-3.21-7.23-8.74a10.19,10.19,0,0,1,10.18-9.93,9.65,9.65,0,0,1,2.92.38v-7.34c0-2.75-.22-3.21-3.17-3.55v-.47a22,22,0,0,0,6.08-1.35c-.08.89-.17,3.63-.17,5.28V205c0,2.11.3,2.7,1.78,3l1.18.21Zm-5.7-13.85c-1-1.44-3-2-4.82-2-2.36,0-5.24,1.4-5.24,7.31,0,5.19,3,8,5.92,8a6.14,6.14,0,0,0,4.14-1.56Z"/><path class="cls-2" d="M1246.56,206.07c-2.45,3.12-5.12,4.05-6.3,4.05-5,0-7.85-4.18-7.85-8.78a10.1,10.1,0,0,1,2.53-7,8.53,8.53,0,0,1,5.87-2.92,5.8,5.8,0,0,1,5.83,5.62c0,.63,0,1-.21,1.06-.8.29-5.75.55-11.41.63-.12,6.76,3.6,9,6.59,9a6.58,6.58,0,0,0,4.61-2.15Zm-6.93-13.48c-2.07,0-3.93,1.57-4.48,5.07a78.62,78.62,0,0,0,8.15-.12c.21,0,.3-.26.3-.68C1243.6,194.79,1242.37,192.59,1239.63,192.59Z"/><path class="cls-2" d="M1261.07,209.62v-.51c2.45-.38,2.79-.59,2.79-3.72V185.08c0-3.38-.21-3.64-2.71-4v-.5a19.88,19.88,0,0,0,5.54-1.44c0,1.1-.13,3-.13,5.87v20.4c0,3,.17,3.3,2.7,3.72v.51Z"/><path class="cls-2" d="M1284,210.12a2.82,2.82,0,0,1-1.9-.84,3.26,3.26,0,0,1-.93-1.9c-1.52,1.1-3.71,2.74-4.69,2.74a4.67,4.67,0,0,1-4.64-4.64c0-1.9,1-3,3-3.72,2.28-.8,5.28-1.73,6.37-2.49V198c0-3-1.47-5-3.75-5a2.41,2.41,0,0,0-1.86.77,7.53,7.53,0,0,0-1.14,2.66.85.85,0,0,1-.81.67,1.61,1.61,0,0,1-1.47-1.48c0-.33.29-.67,1-1.22a19.9,19.9,0,0,1,5.79-2.92,5.15,5.15,0,0,1,3.08,1c1.39,1.27,1.81,2.66,1.81,5.15v7.56c0,2,.68,2.7,1.48,2.7a1.93,1.93,0,0,0,1.31-.42l.26.55ZM1281.17,200c-.71.46-2.91,1.31-4.05,1.86-1.39.63-2.41,1.43-2.41,3a3.07,3.07,0,0,0,3.08,3.17,4.58,4.58,0,0,0,3.3-1.43C1281.09,204.55,1281.17,202.22,1281.17,200Z"/><path class="cls-2" d="M93.85,256.63c-1.78,2.28-4.4,4.18-6.68,4.18-4.85,0-7.85-4.05-7.85-8.27a9.72,9.72,0,0,1,4.09-8.11,11,11,0,0,1,5.79-2.28,5.72,5.72,0,0,1,3.68,1.09,1.21,1.21,0,0,1,.46.93c0,.72-.8,1.65-1.22,1.65-.17,0-.3-.08-.72-.46a6.21,6.21,0,0,0-4.1-1.48c-2.91,0-5.28,1.73-5.32,6.63,0,6,4.14,8,6.42,8a6.41,6.41,0,0,0,5.07-2.28Z"/><path class="cls-2" d="M108.38,260.81a2.82,2.82,0,0,1-1.9-.84,3.26,3.26,0,0,1-.93-1.9c-1.52,1.1-3.72,2.74-4.69,2.74a4.68,4.68,0,0,1-4.65-4.64c0-1.9,1-3,3-3.72,2.28-.8,5.28-1.73,6.38-2.49v-1.27c0-3-1.48-5-3.76-5a2.42,2.42,0,0,0-1.86.76,7.91,7.91,0,0,0-1.14,2.66.84.84,0,0,1-.8.67,1.62,1.62,0,0,1-1.48-1.47c0-.34.3-.68,1-1.23a20.08,20.08,0,0,1,5.78-2.91,5.24,5.24,0,0,1,3.09,1c1.39,1.27,1.81,2.66,1.81,5.15v7.56c0,2,.68,2.71,1.48,2.71a1.94,1.94,0,0,0,1.31-.43l.25.55Zm-2.79-10.09c-.72.46-2.91,1.31-4,1.86-1.4.63-2.41,1.43-2.41,3a3.06,3.06,0,0,0,3.08,3.16,4.58,4.58,0,0,0,3.3-1.43C105.51,255.24,105.59,252.92,105.59,250.72Z"/><path class="cls-2" d="M112.52,260.31v-.51c2.45-.38,2.79-.59,2.79-3.72V235.77c0-3.38-.21-3.63-2.71-4v-.51a19.88,19.88,0,0,0,5.54-1.44c0,1.1-.13,3-.13,5.87v20.4c0,3,.17,3.3,2.7,3.72v.51Z"/><path class="cls-2" d="M122.78,260.31v-.51c2.62-.42,2.79-.63,2.79-3.67v-8.49c0-2.88-.17-3.09-2.41-3.51v-.42a23,23,0,0,0,5.24-1.65c0,.85-.08,3.34-.08,5.24v8.78c0,3.13.25,3.3,2.78,3.72v.51Zm4-23.65a1.85,1.85,0,0,1-1.77-1.78,1.8,1.8,0,0,1,1.82-1.81,1.73,1.73,0,0,1,1.77,1.81A1.8,1.8,0,0,1,126.75,236.66Z"/><path class="cls-2" d="M152.06,259.29a26.77,26.77,0,0,0-5.79,1.52c0-.93.08-1.94.08-2.87-1.09.72-2.45,1.56-3.59,2.16a5.34,5.34,0,0,1-2.28.71c-3.17,0-7.22-3.21-7.22-8.74a10.19,10.19,0,0,1,10.18-9.92,9.28,9.28,0,0,1,2.91.38v-7.35c0-2.75-.21-3.21-3.16-3.55v-.47a21.76,21.76,0,0,0,6.08-1.35c-.09.89-.17,3.64-.17,5.28v20.57c0,2.11.29,2.71,1.77,3l1.19.21Zm-5.71-13.85c-1-1.44-2.95-2-4.81-2-2.37,0-5.24,1.4-5.24,7.31,0,5.19,3,8,5.91,8a6.11,6.11,0,0,0,4.14-1.56Z"/><path class="cls-2" d="M166.46,260.81a2.82,2.82,0,0,1-1.9-.84,3.26,3.26,0,0,1-.93-1.9c-1.52,1.1-3.72,2.74-4.69,2.74a4.67,4.67,0,0,1-4.64-4.64c0-1.9,1-3,3-3.72,2.29-.8,5.28-1.73,6.38-2.49v-1.27c0-3-1.48-5-3.76-5a2.38,2.38,0,0,0-1.85.76,7.71,7.71,0,0,0-1.15,2.66.83.83,0,0,1-.8.67,1.62,1.62,0,0,1-1.48-1.47c0-.34.3-.68,1-1.23a20.21,20.21,0,0,1,5.78-2.91,5.24,5.24,0,0,1,3.09,1c1.39,1.27,1.81,2.66,1.81,5.15v7.56c0,2,.68,2.71,1.48,2.71a1.94,1.94,0,0,0,1.31-.43l.25.55Zm-2.79-10.09c-.72.46-2.91,1.31-4,1.86-1.4.63-2.41,1.43-2.41,3a3.06,3.06,0,0,0,3.08,3.16,4.58,4.58,0,0,0,3.3-1.43C163.59,255.24,163.67,252.92,163.67,250.72Z"/><path class="cls-2" d="M189.86,259.29a26.71,26.71,0,0,0-5.78,1.52c0-.93.08-1.94.08-2.87-1.1.72-2.45,1.56-3.59,2.16a5.41,5.41,0,0,1-2.28.71c-3.17,0-7.22-3.21-7.22-8.74a10.18,10.18,0,0,1,10.18-9.92,9.32,9.32,0,0,1,2.91.38v-7.35c0-2.75-.21-3.21-3.17-3.55v-.47a21.6,21.6,0,0,0,6.08-1.35c-.08.89-.17,3.64-.17,5.28v20.57c0,2.11.3,2.71,1.78,3l1.18.21Zm-5.7-13.85c-1-1.44-3-2-4.82-2-2.36,0-5.23,1.4-5.23,7.31,0,5.19,3,8,5.91,8a6.12,6.12,0,0,0,4.14-1.56Z"/><path class="cls-2" d="M209.4,260.31v-.51c2.62-.42,2.79-.63,2.79-3.67v-8.49c0-2.88-.17-3.09-2.41-3.51v-.42a23,23,0,0,0,5.24-1.65c0,.85-.08,3.34-.08,5.24v8.78c0,3.13.25,3.3,2.79,3.72v.51Zm4-23.65a1.85,1.85,0,0,1-1.77-1.78,1.8,1.8,0,0,1,1.82-1.81,1.73,1.73,0,0,1,1.77,1.81A1.8,1.8,0,0,1,213.37,236.66Z"/><path class="cls-2" d="M230.69,260.31v-.51c2.62-.34,2.79-.63,2.79-3.93v-6.59c0-2.57-.8-5.06-3.8-5.06a7,7,0,0,0-4.56,2v9.84c0,3.09.29,3.3,2.7,3.72v.51h-8.23v-.51c2.66-.38,2.78-.76,2.78-3.67v-8.54c0-2.61-.12-2.87-2.15-3.42v-.42a16.08,16.08,0,0,0,5-1.77c0,.76-.12,1.9-.08,3.42.8-.64,1.81-1.35,2.87-2.07a5.9,5.9,0,0,1,3.17-1.18c3.21,0,5.07,2.45,5.07,6.25v7.81c0,3,.25,3.21,2.4,3.59v.51Z"/><path class="cls-2" d="M255.7,256.63c-1.77,2.28-4.39,4.18-6.67,4.18-4.86,0-7.86-4.05-7.86-8.27a9.7,9.7,0,0,1,4.1-8.11,10.9,10.9,0,0,1,5.78-2.28,5.72,5.72,0,0,1,3.68,1.09,1.18,1.18,0,0,1,.46.93c0,.72-.8,1.65-1.22,1.65-.17,0-.3-.08-.72-.46a6.19,6.19,0,0,0-4.1-1.48c-2.91,0-5.28,1.73-5.32,6.63,0,6,4.14,8,6.42,8a6.41,6.41,0,0,0,5.07-2.28Z"/><path class="cls-2" d="M266.68,242.15c5,0,8.54,4,8.54,9,0,6.38-4.61,9.67-8.58,9.67a8.76,8.76,0,0,1-8.66-9C258,245.19,263.18,242.15,266.68,242.15Zm-.5.88c-3,0-5,3.17-5,7.48,0,5.66,2.54,9.33,6,9.33,2.66,0,4.82-2,4.82-7.94C272,247.34,270,243,266.18,243Z"/><path class="cls-2" d="M299.08,260.31v-.51c2.71-.38,2.75-.68,2.75-4.1v-6.54c0-2.66-.68-4.94-3.63-4.94a6.39,6.39,0,0,0-4.48,2.07,9.53,9.53,0,0,1,.13,1.85v8.07c0,2.91.16,3.17,2.53,3.59v.51h-7.94v-.51c2.45-.42,2.66-.72,2.66-3.59v-7.09c0-3.13-.84-5-3.67-5a6.67,6.67,0,0,0-4.31,2.07v9.84c0,3,.08,3.3,2.7,3.72v.51h-8.24v-.51c2.67-.34,2.79-.72,2.79-3.67v-8.49c0-2.79-.17-3-2.15-3.47v-.42a16.36,16.36,0,0,0,5-1.77c-.08,1.52-.08,2.7-.08,3.33.8-.55,1.69-1.26,2.74-2a6.07,6.07,0,0,1,3.3-1.18c1.86,0,3.46.88,4.35,3.33a41.7,41.7,0,0,1,3.46-2.4,5,5,0,0,1,2.83-.93c3,0,4.73,2.36,4.73,6.12V256c0,3.29.21,3.42,2.45,3.84v.51Z"/><path class="cls-2" d="M308.93,243.5a20.89,20.89,0,0,0,5.4-1.78c0,.64-.12,2-.12,3.3l3.33-2a5.7,5.7,0,0,1,2.54-.88c4.48,0,6.93,3.88,6.93,7.64,0,6-4.74,10.09-10.1,11a6.14,6.14,0,0,1-2.7-.76v6.38c0,3.93.38,4.1,3.29,4.56v.51h-8.91V271c2.45-.46,2.91-.63,2.91-3.88V247.17c0-2.57-.46-2.79-2.57-3.25Zm5.28,14a5.48,5.48,0,0,0,4.05,1.52c3.76,0,5.92-2.36,5.92-7.64,0-4.69-2.67-7.18-5.54-7.18a7.63,7.63,0,0,0-4.43,1.64Z"/><path class="cls-2" d="M342.34,260.81a2.82,2.82,0,0,1-1.9-.84,3.26,3.26,0,0,1-.93-1.9c-1.52,1.1-3.72,2.74-4.69,2.74a4.67,4.67,0,0,1-4.64-4.64c0-1.9,1-3,3-3.72,2.28-.8,5.28-1.73,6.38-2.49v-1.27c0-3-1.48-5-3.76-5a2.42,2.42,0,0,0-1.86.76,7.91,7.91,0,0,0-1.14,2.66.84.84,0,0,1-.8.67,1.62,1.62,0,0,1-1.48-1.47c0-.34.3-.68,1-1.23a20.08,20.08,0,0,1,5.78-2.91,5.24,5.24,0,0,1,3.09,1c1.39,1.27,1.81,2.66,1.81,5.15v7.56c0,2,.68,2.71,1.48,2.71a1.94,1.94,0,0,0,1.31-.43l.25.55Zm-2.79-10.09c-.72.46-2.91,1.31-4.05,1.86-1.4.63-2.41,1.43-2.41,3a3.06,3.06,0,0,0,3.08,3.16,4.58,4.58,0,0,0,3.3-1.43C339.47,255.24,339.55,252.92,339.55,250.72Z"/><path class="cls-2" d="M355.6,260.31H347v-.51c2.45-.38,2.62-.59,2.62-3.67v-8.49c0-2.71,0-3-2.16-3.47v-.42a18,18,0,0,0,5-1.77c0,.76,0,3-.13,4.56,1-1.78,3.17-4.39,5.11-4.39a1.91,1.91,0,0,1,2.07,1.64,2.55,2.55,0,0,1-1,2,.72.72,0,0,1-1,0,2.64,2.64,0,0,0-1.9-1.06c-.84,0-2.15.93-3.25,3v8.41c0,3,.21,3.21,3.25,3.67Z"/><path class="cls-2" d="M373.6,260.81a2.82,2.82,0,0,1-1.9-.84,3.26,3.26,0,0,1-.93-1.9c-1.52,1.1-3.72,2.74-4.69,2.74a4.68,4.68,0,0,1-4.65-4.64c0-1.9,1-3,3-3.72,2.28-.8,5.28-1.73,6.38-2.49v-1.27c0-3-1.48-5-3.76-5a2.42,2.42,0,0,0-1.86.76,7.91,7.91,0,0,0-1.14,2.66.84.84,0,0,1-.8.67,1.62,1.62,0,0,1-1.48-1.47c0-.34.3-.68,1-1.23a20.08,20.08,0,0,1,5.78-2.91,5.24,5.24,0,0,1,3.09,1c1.39,1.27,1.81,2.66,1.81,5.15v7.56c0,2,.68,2.71,1.48,2.71a1.94,1.94,0,0,0,1.31-.43l.25.55Zm-2.79-10.09c-.72.46-2.91,1.31-4.05,1.86-1.4.63-2.41,1.43-2.41,3a3.06,3.06,0,0,0,3.08,3.16,4.58,4.58,0,0,0,3.3-1.43C370.73,255.24,370.81,252.92,370.81,250.72Z"/><path class="cls-2" d="M386.61,242.44a3.54,3.54,0,0,1,1.35-.29c4.27,0,7.86,3.38,7.86,8.44a10.09,10.09,0,0,1-10.05,10.22,16.52,16.52,0,0,1-5.71-1.35c.09-1,.09-2.15.09-3.21V235.51c0-2.91-.17-3.33-2.75-3.8v-.46a21.27,21.27,0,0,0,5.58-1.44c-.09,1.23-.13,3.85-.13,5.54v8.74Zm-3.76,13.35a4.14,4.14,0,0,0,.21,1.52c.34,1.06,2.11,2.24,4.56,2.24,3.59,0,5.07-3.21,5.07-7.77s-2.66-7.65-6.5-7.65a7.93,7.93,0,0,0-3.34.63Z"/><path class="cls-2" d="M397.81,260.31v-.51c2.44-.38,2.78-.59,2.78-3.72V235.77c0-3.38-.21-3.63-2.7-4v-.51a19.8,19.8,0,0,0,5.53-1.44c0,1.1-.12,3-.12,5.87v20.4c0,3,.16,3.3,2.7,3.72v.51Z"/><path class="cls-2" d="M422.43,256.76c-2.45,3.12-5.11,4.05-6.29,4.05-5,0-7.86-4.18-7.86-8.78a10.11,10.11,0,0,1,2.54-7,8.52,8.52,0,0,1,5.87-2.91,5.79,5.79,0,0,1,5.83,5.61c0,.64,0,1-.22,1.06-.8.3-5.74.55-11.4.63-.13,6.76,3.59,9,6.59,9a6.57,6.57,0,0,0,4.6-2.15Zm-6.93-13.47c-2.07,0-3.92,1.56-4.47,5.06a76,76,0,0,0,8.15-.12c.21,0,.29-.26.29-.68C419.47,245.48,418.25,243.29,415.5,243.29Z"/><path class="cls-2" d="M459.67,243.12c-1.94.46-2.24.8-3.17,2.91-1.22,2.83-2.32,5.92-5.36,13.56-2.54,6.46-3.51,9.08-4.14,11.19-.21.85-.59,1.18-1.1,1.18a2,2,0,0,1-2.11-1.68c0-.34.17-.64,1-1.27a9.53,9.53,0,0,0,3.13-4.22c.89-2.08,1.39-3.17,1.73-4.1a1.3,1.3,0,0,0,0-1.06c-1.69-4.6-3.84-9.88-5-13-1.05-2.66-1.22-3-3.5-3.5v-.47h7.64v.47c-2,.55-2.15.8-1.52,2.49l4.06,10.94c1.26-3.38,3.29-8.91,3.93-10.94.5-1.56.16-1.94-2.33-2.49v-.47h6.76Z"/><path class="cls-2" d="M477.27,260.31v-.51c2.45-.38,2.79-.59,2.79-3.72V235.77c0-3.38-.21-3.63-2.71-4v-.51a19.88,19.88,0,0,0,5.54-1.44c0,1.1-.13,3-.13,5.87v20.4c0,3,.17,3.3,2.7,3.72v.51Z"/><path class="cls-2" d="M500.16,260.81a2.84,2.84,0,0,1-1.9-.84,3.26,3.26,0,0,1-.93-1.9c-1.52,1.1-3.71,2.74-4.68,2.74a4.67,4.67,0,0,1-4.65-4.64c0-1.9,1-3,3-3.72,2.28-.8,5.28-1.73,6.38-2.49v-1.27c0-3-1.48-5-3.76-5a2.41,2.41,0,0,0-1.86.76,7.53,7.53,0,0,0-1.14,2.66.85.85,0,0,1-.81.67,1.61,1.61,0,0,1-1.47-1.47c0-.34.29-.68,1-1.23a20.14,20.14,0,0,1,5.79-2.91,5.21,5.21,0,0,1,3.08,1c1.39,1.27,1.82,2.66,1.82,5.15v7.56c0,2,.67,2.71,1.47,2.71a1.94,1.94,0,0,0,1.31-.43l.26.55Zm-2.78-10.09c-.72.46-2.92,1.31-4.06,1.86-1.39.63-2.41,1.43-2.41,3A3.06,3.06,0,0,0,494,258.7a4.57,4.57,0,0,0,3.29-1.43C497.29,255.24,497.38,252.92,497.38,250.72Z"/><path class="cls-2" d="M536.94,256.76c-2.45,3.12-5.11,4.05-6.3,4.05-5,0-7.85-4.18-7.85-8.78a10.1,10.1,0,0,1,2.53-7,8.56,8.56,0,0,1,5.87-2.91,5.79,5.79,0,0,1,5.83,5.61c0,.64,0,1-.21,1.06-.8.3-5.74.55-11.4.63-.13,6.76,3.59,9,6.59,9a6.57,6.57,0,0,0,4.6-2.15ZM530,243.29c-2.07,0-3.93,1.56-4.48,5.06a76.13,76.13,0,0,0,8.16-.12c.21,0,.29-.26.29-.68C534,245.48,532.76,243.29,530,243.29Z"/><path class="cls-2" d="M548.43,260.31v-.51c1.86-.38,2.19-.59,1.56-1.65l-3.29-5.66c-.93,1.52-2,3.26-2.75,4.69-1.05,1.9-.72,2.16,1.52,2.62v.51h-7.09v-.51c2.74-.46,3-.84,4.39-2.91s2.32-3.47,3.42-5.24l-3.38-5.58c-1.44-2.4-1.77-2.66-3.88-2.95v-.47h7.47v.47c-1.73.46-1.94.67-1.27,1.81l2.62,4.56c.93-1.43,1.78-2.87,2.62-4.35.63-1.14.63-1.52-1.56-2l0-.47h6.84v.47c-2.66.5-3,.76-4.35,2.62-.59.84-1.86,2.61-3.08,4.52l4,6.25c1.56,2.45,1.94,2.87,4.43,3.25v.55Z"/><path class="cls-2" d="M571.66,256.63c-1.77,2.28-4.39,4.18-6.67,4.18-4.86,0-7.86-4.05-7.86-8.27a9.7,9.7,0,0,1,4.1-8.11,10.9,10.9,0,0,1,5.78-2.28,5.72,5.72,0,0,1,3.68,1.09,1.18,1.18,0,0,1,.46.93c0,.72-.8,1.65-1.22,1.65-.17,0-.3-.08-.72-.46a6.19,6.19,0,0,0-4.1-1.48c-2.91,0-5.28,1.73-5.32,6.63,0,6,4.14,8,6.42,8a6.41,6.41,0,0,0,5.07-2.28Z"/><path class="cls-2" d="M572.85,260.31v-.51c2.44-.38,2.78-.59,2.78-3.72V235.77c0-3.38-.21-3.63-2.7-4v-.51a19.8,19.8,0,0,0,5.53-1.44c0,1.1-.12,3-.12,5.87v20.4c0,3,.16,3.3,2.7,3.72v.51Z"/><path class="cls-2" d="M601.52,259.34a21.11,21.11,0,0,0-5.65,1.47c0-.63.12-2.11.12-3.29-2,1.94-4,3.25-6,3.29-2.61.05-4.81-1.56-4.81-5.74v-8.91c0-1.82-.59-2.2-1.69-2.45l-.76-.17v-.46a41.15,41.15,0,0,0,5.28-.72c-.08.84-.13,2.15-.13,5.7v5.74c0,3.8,1.78,4.82,3.64,4.82a5.55,5.55,0,0,0,4.47-2v-10c0-2.24-.5-2.57-2.07-2.87l-1-.17v-.5a32.47,32.47,0,0,0,5.79-.72V256c0,2.32.34,2.53,1.77,2.7l1,.13Z"/><path class="cls-2" d="M613.52,247c-.76-2.95-2.36-4-4.3-4a2.6,2.6,0,0,0-2.79,2.87c0,2.07,1.48,3,3.5,4,3,1.48,4.69,2.83,4.69,5.41,0,3.42-3,5.53-6.17,5.53a11.62,11.62,0,0,1-4.09-.8,45,45,0,0,1-.85-4.43l.51-.13c.68,2.45,2.28,4.52,5.07,4.52a2.89,2.89,0,0,0,3.12-3.08c0-2-1.22-3.09-3.29-4.23-2.45-1.39-4.65-2.66-4.69-5.49s2.37-5,5.79-5a26.85,26.85,0,0,1,3.55.42c0,.8.42,3.59.5,4.26Z"/><path class="cls-2" d="M617.16,260.31v-.51c2.62-.42,2.78-.63,2.78-3.67v-8.49c0-2.88-.16-3.09-2.4-3.51v-.42a22.77,22.77,0,0,0,5.23-1.65c0,.85-.08,3.34-.08,5.24v8.78c0,3.13.25,3.3,2.79,3.72v.51Zm4-23.65a1.85,1.85,0,0,1-1.78-1.78,1.8,1.8,0,0,1,1.82-1.81,1.73,1.73,0,0,1,1.77,1.81A1.8,1.8,0,0,1,621.13,236.66Z"/><path class="cls-2" d="M644.49,243.16c-2.07.42-2.58.84-3.59,3.29-1.36,3.26-4.52,11.15-5.79,14.36h-.55c-1.31-3.67-3.5-9.37-5.53-14.57-.93-2.32-1.14-2.7-3.25-3.08v-.51h7.56v.51c-2.12.46-2.16.84-1.61,2.45,1.1,3.25,2.7,7.35,4.06,10.85,1.6-4,3.08-7.94,4-10.47.76-2.15.29-2.37-2.2-2.83v-.51h6.93Z"/><path class="cls-2" d="M646,260.31v-.51c2.62-.42,2.79-.63,2.79-3.67v-8.49c0-2.88-.17-3.09-2.41-3.51v-.42a23,23,0,0,0,5.24-1.65c0,.85-.09,3.34-.09,5.24v8.78c0,3.13.26,3.3,2.79,3.72v.51Zm4-23.65a1.84,1.84,0,0,1-1.77-1.78,1.79,1.79,0,0,1,1.81-1.81,1.74,1.74,0,0,1,1.78,1.81A1.81,1.81,0,0,1,650,236.66Z"/><path class="cls-2" d="M675.28,259.29a26.77,26.77,0,0,0-5.79,1.52c0-.93.09-1.94.09-2.87-1.1.72-2.45,1.56-3.59,2.16a5.41,5.41,0,0,1-2.28.71c-3.17,0-7.22-3.21-7.22-8.74a10.18,10.18,0,0,1,10.17-9.92,9.34,9.34,0,0,1,2.92.38v-7.35c0-2.75-.21-3.21-3.17-3.55v-.47a21.6,21.6,0,0,0,6.08-1.35c-.08.89-.17,3.64-.17,5.28v20.57c0,2.11.3,2.71,1.78,3l1.18.21Zm-5.7-13.85c-1-1.44-3-2-4.82-2-2.36,0-5.23,1.4-5.23,7.31,0,5.19,3,8,5.91,8a6.12,6.12,0,0,0,4.14-1.56Z"/><path class="cls-2" d="M689.69,260.81a2.8,2.8,0,0,1-1.9-.84,3.15,3.15,0,0,1-.93-1.9c-1.53,1.1-3.72,2.74-4.69,2.74a4.68,4.68,0,0,1-4.65-4.64c0-1.9,1-3,3-3.72,2.28-.8,5.28-1.73,6.38-2.49v-1.27c0-3-1.48-5-3.76-5a2.41,2.41,0,0,0-1.86.76,7.91,7.91,0,0,0-1.14,2.66.84.84,0,0,1-.8.67,1.62,1.62,0,0,1-1.48-1.47c0-.34.29-.68,1-1.23a20.27,20.27,0,0,1,5.79-2.91,5.19,5.19,0,0,1,3.08,1c1.4,1.27,1.82,2.66,1.82,5.15v7.56c0,2,.68,2.71,1.48,2.71a1.94,1.94,0,0,0,1.31-.43l.25.55Zm-2.79-10.09c-.72.46-2.92,1.31-4.06,1.86-1.39.63-2.4,1.43-2.4,3a3.06,3.06,0,0,0,3.08,3.16,4.55,4.55,0,0,0,3.29-1.43C686.81,255.24,686.9,252.92,686.9,250.72Z"/><path class="cls-2" d="M713.09,259.29a26.77,26.77,0,0,0-5.79,1.52c0-.93.09-1.94.09-2.87-1.1.72-2.45,1.56-3.6,2.16a5.34,5.34,0,0,1-2.28.71c-3.16,0-7.22-3.21-7.22-8.74a10.19,10.19,0,0,1,10.18-9.92,9.34,9.34,0,0,1,2.92.38v-7.35c0-2.75-.22-3.21-3.17-3.55v-.47a21.68,21.68,0,0,0,6.08-1.35c-.09.89-.17,3.64-.17,5.28v20.57c0,2.11.3,2.71,1.77,3l1.19.21Zm-5.7-13.85c-1-1.44-3-2-4.82-2-2.36,0-5.24,1.4-5.24,7.31,0,5.19,3,8,5.92,8a6.14,6.14,0,0,0,4.14-1.56Z"/><path class="cls-2" d="M742.94,247c-.76-2.95-2.37-4-4.31-4a2.6,2.6,0,0,0-2.79,2.87c0,2.07,1.48,3,3.51,4,2.95,1.48,4.68,2.83,4.68,5.41,0,3.42-3,5.53-6.16,5.53a11.68,11.68,0,0,1-4.1-.8,42.44,42.44,0,0,1-.84-4.43l.5-.13c.68,2.45,2.28,4.52,5.07,4.52a2.9,2.9,0,0,0,3.13-3.08c0-2-1.23-3.09-3.3-4.23-2.45-1.39-4.64-2.66-4.69-5.49s2.37-5,5.79-5a26.63,26.63,0,0,1,3.55.42c0,.8.42,3.59.51,4.26Z"/><path class="cls-2" d="M761.35,256.76c-2.45,3.12-5.11,4.05-6.29,4.05-5,0-7.86-4.18-7.86-8.78a10.11,10.11,0,0,1,2.54-7,8.52,8.52,0,0,1,5.87-2.91,5.79,5.79,0,0,1,5.83,5.61c0,.64-.05,1-.21,1.06-.81.3-5.75.55-11.41.63-.12,6.76,3.59,9,6.59,9a6.57,6.57,0,0,0,4.6-2.15Zm-6.92-13.47c-2.07,0-3.93,1.56-4.48,5.06a76,76,0,0,0,8.15-.12c.21,0,.3-.26.3-.68C758.4,245.48,757.17,243.29,754.43,243.29Z"/><path class="cls-2" d="M796,256.76c-2.45,3.12-5.11,4.05-6.29,4.05-5,0-7.86-4.18-7.86-8.78a10.11,10.11,0,0,1,2.54-7,8.52,8.52,0,0,1,5.87-2.91,5.79,5.79,0,0,1,5.83,5.61c0,.64,0,1-.21,1.06-.81.3-5.75.55-11.41.63-.12,6.76,3.59,9,6.59,9a6.57,6.57,0,0,0,4.6-2.15Zm-6.92-13.47c-2.07,0-3.93,1.56-4.48,5.06a75.93,75.93,0,0,0,8.15-.12c.21,0,.3-.26.3-.68C793,245.48,791.79,243.29,789.05,243.29Z"/><path class="cls-2" d="M809.53,260.31v-.51c2.62-.34,2.79-.63,2.79-3.93v-6.59c0-2.57-.8-5.06-3.8-5.06a7,7,0,0,0-4.56,2v9.84c0,3.09.29,3.3,2.7,3.72v.51h-8.24v-.51c2.66-.38,2.79-.76,2.79-3.67v-8.54c0-2.61-.13-2.87-2.15-3.42v-.42a16.08,16.08,0,0,0,5-1.77c0,.76-.12,1.9-.08,3.42.8-.64,1.81-1.35,2.87-2.07a5.84,5.84,0,0,1,3.17-1.18c3.21,0,5.07,2.45,5.07,6.25v7.81c0,3,.25,3.21,2.4,3.59v.51Z"/><path class="cls-2" d="M827.06,260.39a3,3,0,0,1-1.31.42c-2.49,0-3.71-1.69-3.71-4.81V243.79h-2.79l-.08-.17.5-1H822v-4a33,33,0,0,0,2.53-2.41l.3.05c0,.76-.13,3-.13,6.37h4.52a1.53,1.53,0,0,1-.25,1.14h-4.27v11c0,3.47,1.22,4.14,2.62,4.14a5.1,5.1,0,0,0,2.41-.63l.17.55Z"/><path class="cls-2" d="M839.9,260.31h-8.61v-.51c2.45-.38,2.62-.59,2.62-3.67v-8.49c0-2.71,0-3-2.16-3.47v-.42a18,18,0,0,0,5-1.77c0,.76,0,3-.13,4.56,1-1.78,3.17-4.39,5.11-4.39a1.91,1.91,0,0,1,2.07,1.64,2.55,2.55,0,0,1-1.05,2,.71.71,0,0,1-1,0,2.66,2.66,0,0,0-1.91-1.06c-.84,0-2.15.93-3.25,3v8.41c0,3,.21,3.21,3.25,3.67Z"/><path class="cls-2" d="M859.33,256.76c-2.45,3.12-5.11,4.05-6.29,4.05-5,0-7.85-4.18-7.85-8.78a10.1,10.1,0,0,1,2.53-7,8.56,8.56,0,0,1,5.87-2.91,5.79,5.79,0,0,1,5.83,5.61c0,.64,0,1-.21,1.06-.8.3-5.75.55-11.41.63-.12,6.76,3.59,9,6.59,9a6.59,6.59,0,0,0,4.61-2.15Zm-6.92-13.47c-2.07,0-3.93,1.56-4.48,5.06a75.93,75.93,0,0,0,8.15-.12c.21,0,.3-.26.3-.68C856.38,245.48,855.15,243.29,852.41,243.29Z"/><path class="cls-2" d="M861.32,260.31v-.51c2.45-.38,2.79-.59,2.79-3.72V235.77c0-3.38-.21-3.63-2.7-4v-.51a19.9,19.9,0,0,0,5.53-1.44c0,1.1-.13,3-.13,5.87v20.4c0,3,.17,3.3,2.71,3.72v.51Z"/><path class="cls-2" d="M884.21,260.81a2.84,2.84,0,0,1-1.9-.84,3.26,3.26,0,0,1-.93-1.9c-1.52,1.1-3.71,2.74-4.68,2.74a4.68,4.68,0,0,1-4.65-4.64c0-1.9,1-3,3-3.72,2.28-.8,5.28-1.73,6.38-2.49v-1.27c0-3-1.48-5-3.76-5a2.41,2.41,0,0,0-1.86.76,7.53,7.53,0,0,0-1.14,2.66.84.84,0,0,1-.8.67,1.62,1.62,0,0,1-1.48-1.47c0-.34.29-.68,1-1.23a20.27,20.27,0,0,1,5.79-2.91,5.19,5.19,0,0,1,3.08,1c1.4,1.27,1.82,2.66,1.82,5.15v7.56c0,2,.67,2.71,1.48,2.71a1.94,1.94,0,0,0,1.31-.43l.25.55Zm-2.78-10.09c-.72.46-2.92,1.31-4.06,1.86-1.39.63-2.41,1.43-2.41,3a3.06,3.06,0,0,0,3.09,3.16,4.55,4.55,0,0,0,3.29-1.43C881.34,255.24,881.43,252.92,881.43,250.72Z"/><path class="cls-2" d="M903.35,256.63c-1.77,2.28-4.39,4.18-6.67,4.18-4.86,0-7.86-4.05-7.86-8.27a9.7,9.7,0,0,1,4.1-8.11,10.9,10.9,0,0,1,5.78-2.28,5.72,5.72,0,0,1,3.68,1.09,1.18,1.18,0,0,1,.46.93c0,.72-.8,1.65-1.22,1.65-.17,0-.3-.08-.72-.46a6.19,6.19,0,0,0-4.1-1.48c-2.91,0-5.28,1.73-5.32,6.63,0,6,4.14,8,6.42,8a6.41,6.41,0,0,0,5.07-2.28Z"/><path class="cls-2" d="M919.78,256.76c-2.45,3.12-5.11,4.05-6.29,4.05-5,0-7.86-4.18-7.86-8.78a10.11,10.11,0,0,1,2.54-7,8.54,8.54,0,0,1,5.87-2.91,5.79,5.79,0,0,1,5.83,5.61c0,.64,0,1-.21,1.06-.81.3-5.75.55-11.41.63-.12,6.76,3.59,9,6.59,9a6.59,6.59,0,0,0,4.61-2.15Zm-6.92-13.47c-2.07,0-3.93,1.56-4.48,5.06a75.93,75.93,0,0,0,8.15-.12c.21,0,.3-.26.3-.68C916.83,245.48,915.6,243.29,912.86,243.29Z"/><path class="cls-2" d="M933.34,260.31v-.51c2.62-.34,2.79-.63,2.79-3.93v-6.59c0-2.57-.8-5.06-3.8-5.06a7,7,0,0,0-4.56,2v9.84c0,3.09.29,3.3,2.7,3.72v.51h-8.24v-.51c2.67-.38,2.79-.76,2.79-3.67v-8.54c0-2.61-.12-2.87-2.15-3.42v-.42a16.08,16.08,0,0,0,5-1.77c0,.76-.12,1.9-.08,3.42.8-.64,1.81-1.35,2.87-2.07a5.84,5.84,0,0,1,3.17-1.18c3.21,0,5.07,2.45,5.07,6.25v7.81c0,3,.25,3.21,2.4,3.59v.51Z"/><path class="cls-2" d="M962.18,243.5a21,21,0,0,0,5.4-1.78c0,.64-.12,2-.12,3.3l3.33-2a5.66,5.66,0,0,1,2.54-.88c4.47,0,6.92,3.88,6.92,7.64,0,6-4.73,10.09-10.09,11a6.14,6.14,0,0,1-2.7-.76v6.38c0,3.93.38,4.1,3.29,4.56v.51h-8.91V271c2.45-.46,2.91-.63,2.91-3.88V247.17c0-2.57-.46-2.79-2.57-3.25Zm5.28,14a5.48,5.48,0,0,0,4,1.52c3.76,0,5.91-2.36,5.91-7.64,0-4.69-2.66-7.18-5.53-7.18a7.6,7.6,0,0,0-4.43,1.64Z"/><path class="cls-2" d="M995.59,260.81a2.82,2.82,0,0,1-1.9-.84,3.2,3.2,0,0,1-.93-1.9c-1.52,1.1-3.72,2.74-4.69,2.74a4.68,4.68,0,0,1-4.65-4.64c0-1.9,1-3,3-3.72,2.28-.8,5.28-1.73,6.38-2.49v-1.27c0-3-1.48-5-3.76-5a2.42,2.42,0,0,0-1.86.76,7.91,7.91,0,0,0-1.14,2.66.84.84,0,0,1-.8.67,1.62,1.62,0,0,1-1.48-1.47c0-.34.3-.68,1-1.23a20.08,20.08,0,0,1,5.78-2.91,5.19,5.19,0,0,1,3.08,1c1.4,1.27,1.82,2.66,1.82,5.15v7.56c0,2,.68,2.71,1.48,2.71a1.94,1.94,0,0,0,1.31-.43l.25.55Zm-2.79-10.09c-.72.46-2.91,1.31-4,1.86-1.4.63-2.41,1.43-2.41,3a3.06,3.06,0,0,0,3.08,3.16,4.59,4.59,0,0,0,3.3-1.43C992.72,255.24,992.8,252.92,992.8,250.72Z"/><path class="cls-2" d="M1008.85,260.31h-8.61v-.51c2.45-.38,2.62-.59,2.62-3.67v-8.49c0-2.71,0-3-2.16-3.47v-.42a18,18,0,0,0,5-1.77c-.05.76-.05,3-.13,4.56,1-1.78,3.17-4.39,5.11-4.39a1.91,1.91,0,0,1,2.07,1.64,2.53,2.53,0,0,1-1.06,2,.71.71,0,0,1-1,0,2.64,2.64,0,0,0-1.9-1.06c-.84,0-2.15.93-3.25,3v8.41c0,3,.21,3.21,3.25,3.67Z"/><path class="cls-2" d="M1026.85,260.81a2.82,2.82,0,0,1-1.9-.84,3.2,3.2,0,0,1-.93-1.9c-1.52,1.1-3.72,2.74-4.69,2.74a4.68,4.68,0,0,1-4.65-4.64c0-1.9,1-3,3-3.72,2.28-.8,5.28-1.73,6.38-2.49v-1.27c0-3-1.48-5-3.76-5a2.42,2.42,0,0,0-1.86.76,7.91,7.91,0,0,0-1.14,2.66.84.84,0,0,1-.8.67,1.62,1.62,0,0,1-1.48-1.47c0-.34.3-.68,1-1.23a20.08,20.08,0,0,1,5.78-2.91,5.19,5.19,0,0,1,3.08,1c1.4,1.27,1.82,2.66,1.82,5.15v7.56c0,2,.68,2.71,1.48,2.71a1.94,1.94,0,0,0,1.31-.43l.25.55Zm-2.79-10.09c-.72.46-2.91,1.31-4.06,1.86-1.39.63-2.4,1.43-2.4,3a3.06,3.06,0,0,0,3.08,3.16,4.59,4.59,0,0,0,3.3-1.43C1024,255.24,1024.06,252.92,1024.06,250.72Z"/><path class="cls-2" d="M1064,256.63c-1.77,2.28-4.39,4.18-6.67,4.18-4.86,0-7.86-4.05-7.86-8.27a9.73,9.73,0,0,1,4.1-8.11,10.9,10.9,0,0,1,5.79-2.28,5.7,5.7,0,0,1,3.67,1.09,1.19,1.19,0,0,1,.47.93c0,.72-.81,1.65-1.23,1.65-.17,0-.3-.08-.72-.46a6.18,6.18,0,0,0-4.09-1.48c-2.92,0-5.28,1.73-5.33,6.63,0,6,4.14,8,6.42,8a6.4,6.4,0,0,0,5.07-2.28Z"/><path class="cls-2" d="M1074.52,260.31h-8.62v-.51c2.45-.38,2.62-.59,2.62-3.67v-8.49c0-2.71,0-3-2.15-3.47v-.42a18,18,0,0,0,5-1.77c-.05.76-.05,3-.13,4.56,1-1.78,3.17-4.39,5.11-4.39a1.92,1.92,0,0,1,2.07,1.64,2.56,2.56,0,0,1-1.06,2,.71.71,0,0,1-1,0,2.64,2.64,0,0,0-1.9-1.06c-.84,0-2.15.93-3.25,3v8.41c0,3,.21,3.21,3.25,3.67Z"/><path class="cls-2" d="M1094,256.76c-2.45,3.12-5.11,4.05-6.29,4.05-5,0-7.86-4.18-7.86-8.78a10.11,10.11,0,0,1,2.54-7,8.52,8.52,0,0,1,5.87-2.91,5.79,5.79,0,0,1,5.83,5.61c0,.64,0,1-.22,1.06-.8.3-5.74.55-11.4.63-.13,6.76,3.59,9,6.59,9a6.57,6.57,0,0,0,4.6-2.15ZM1087,243.29c-2.07,0-3.92,1.56-4.47,5.06a76,76,0,0,0,8.15-.12c.21,0,.29-.26.29-.68C1091,245.48,1089.77,243.29,1087,243.29Z"/><path class="cls-2" d="M1109,260.81a2.82,2.82,0,0,1-1.9-.84,3.26,3.26,0,0,1-.93-1.9c-1.52,1.1-3.72,2.74-4.69,2.74a4.67,4.67,0,0,1-4.64-4.64c0-1.9,1-3,3-3.72,2.28-.8,5.28-1.73,6.38-2.49v-1.27c0-3-1.48-5-3.76-5a2.42,2.42,0,0,0-1.86.76,7.91,7.91,0,0,0-1.14,2.66.84.84,0,0,1-.8.67,1.62,1.62,0,0,1-1.48-1.47c0-.34.3-.68,1-1.23a20.08,20.08,0,0,1,5.78-2.91,5.24,5.24,0,0,1,3.09,1c1.39,1.27,1.81,2.66,1.81,5.15v7.56c0,2,.68,2.71,1.48,2.71a1.94,1.94,0,0,0,1.31-.43l.25.55Zm-2.79-10.09c-.72.46-2.91,1.31-4,1.86-1.4.63-2.41,1.43-2.41,3a3.06,3.06,0,0,0,3.08,3.16,4.58,4.58,0,0,0,3.3-1.43C1106.12,255.24,1106.2,252.92,1106.2,250.72Z"/><path class="cls-2" d="M1122.25,260.31h-8.61v-.51c2.45-.38,2.62-.59,2.62-3.67v-8.49c0-2.71,0-3-2.16-3.47v-.42a18,18,0,0,0,5-1.77c0,.76,0,3-.13,4.56,1-1.78,3.17-4.39,5.11-4.39a1.91,1.91,0,0,1,2.07,1.64,2.55,2.55,0,0,1-1,2,.71.71,0,0,1-1,0,2.68,2.68,0,0,0-1.91-1.06c-.84,0-2.15.93-3.25,3v8.41c0,3,.21,3.21,3.25,3.67Z"/><path class="cls-2" d="M1163.93,259.34a21.08,21.08,0,0,0-5.66,1.47c0-.63.12-2.11.12-3.29-2,1.94-4.05,3.25-6,3.29-2.62.05-4.82-1.56-4.82-5.74v-8.91c0-1.82-.59-2.2-1.69-2.45l-.76-.17v-.46a41.15,41.15,0,0,0,5.28-.72c-.08.84-.13,2.15-.13,5.7v5.74c0,3.8,1.78,4.82,3.64,4.82a5.55,5.55,0,0,0,4.47-2v-10c0-2.24-.5-2.57-2.07-2.87l-1-.17v-.5a32.35,32.35,0,0,0,5.79-.72V256c0,2.32.34,2.53,1.77,2.7l1,.13Z"/><path class="cls-2" d="M1176.94,260.31v-.51c2.62-.34,2.79-.63,2.79-3.93v-6.59c0-2.57-.81-5.06-3.81-5.06a7.07,7.07,0,0,0-4.56,2v9.84c0,3.09.3,3.3,2.71,3.72v.51h-8.24v-.51c2.66-.38,2.79-.76,2.79-3.67v-8.54c0-2.61-.13-2.87-2.16-3.42v-.42a16,16,0,0,0,5-1.77c0,.76-.13,1.9-.09,3.42.81-.64,1.82-1.35,2.88-2.07a5.84,5.84,0,0,1,3.16-1.18c3.21,0,5.07,2.45,5.07,6.25v7.81c0,3,.25,3.21,2.41,3.59v.51Z"/><path class="cls-2" d="M1220.39,256.76c-2.45,3.12-5.12,4.05-6.3,4.05-5,0-7.85-4.18-7.85-8.78a10.1,10.1,0,0,1,2.53-7,8.56,8.56,0,0,1,5.87-2.91,5.79,5.79,0,0,1,5.83,5.61c0,.64,0,1-.21,1.06-.8.3-5.75.55-11.41.63-.12,6.76,3.6,9,6.59,9a6.58,6.58,0,0,0,4.61-2.15Zm-6.93-13.47c-2.07,0-3.93,1.56-4.48,5.06a75.87,75.87,0,0,0,8.15-.12c.21,0,.3-.26.3-.68C1217.43,245.48,1216.2,243.29,1213.46,243.29Z"/><path class="cls-2" d="M1233.4,247c-.76-2.95-2.37-4-4.31-4a2.6,2.6,0,0,0-2.79,2.87c0,2.07,1.48,3,3.51,4,3,1.48,4.69,2.83,4.69,5.41,0,3.42-3,5.53-6.17,5.53a11.68,11.68,0,0,1-4.1-.8,42.44,42.44,0,0,1-.84-4.43l.5-.13c.68,2.45,2.28,4.52,5.07,4.52a2.9,2.9,0,0,0,3.13-3.08c0-2-1.23-3.09-3.3-4.23-2.45-1.39-4.64-2.66-4.69-5.49s2.37-5,5.79-5a26.63,26.63,0,0,1,3.55.42c0,.8.42,3.59.51,4.26Z"/><path class="cls-2" d="M1244.13,260.39a3,3,0,0,1-1.31.42c-2.49,0-3.72-1.69-3.72-4.81V243.79h-2.79l-.08-.17.51-1h2.36v-4a29.66,29.66,0,0,0,2.53-2.41l.3.05c0,.76-.13,3-.13,6.37h4.52a1.49,1.49,0,0,1-.25,1.14h-4.27v11c0,3.47,1.23,4.14,2.62,4.14a5.07,5.07,0,0,0,2.41-.63l.17.55Z"/><path class="cls-2" d="M1248.22,260.31v-.51c2.62-.42,2.79-.63,2.79-3.67v-8.49c0-2.88-.17-3.09-2.41-3.51v-.42a23,23,0,0,0,5.24-1.65c0,.85-.08,3.34-.08,5.24v8.78c0,3.13.25,3.3,2.79,3.72v.51Zm4-23.65a1.85,1.85,0,0,1-1.78-1.78,1.8,1.8,0,0,1,1.82-1.81,1.73,1.73,0,0,1,1.77,1.81A1.8,1.8,0,0,1,1252.2,236.66Z"/><path class="cls-2" d="M1258.19,260.31v-.51c2.45-.38,2.79-.59,2.79-3.72V235.77c0-3.38-.21-3.63-2.7-4v-.51a19.9,19.9,0,0,0,5.53-1.44c0,1.1-.13,3-.13,5.87v20.4c0,3,.17,3.3,2.71,3.72v.51Z"/><path class="cls-2" d="M1277.37,242.15c5,0,8.53,4,8.53,9,0,6.38-4.6,9.67-8.57,9.67a8.76,8.76,0,0,1-8.66-9C1268.67,245.19,1273.87,242.15,1277.37,242.15Zm-.51.88c-2.95,0-5,3.17-5,7.48,0,5.66,2.53,9.33,6,9.33,2.66,0,4.81-2,4.81-7.94C1282.69,247.34,1280.71,243,1276.86,243Z"/><path class="cls-2" d="M79,311v-.51c2.62-.42,2.79-.63,2.79-3.67v-8.49c0-2.87-.17-3.08-2.41-3.51v-.42a22.52,22.52,0,0,0,5.24-1.65c0,.85-.08,3.34-.08,5.24v8.79c0,3.12.25,3.29,2.78,3.71V311Zm4-23.65a1.85,1.85,0,0,1-1.77-1.78A1.8,1.8,0,0,1,83,283.76a1.74,1.74,0,0,1,1.78,1.81A1.8,1.8,0,0,1,83,287.35Z"/><path class="cls-2" d="M100.31,311v-.51c2.62-.33,2.79-.63,2.79-3.92V300c0-2.58-.8-5.07-3.8-5.07a7,7,0,0,0-4.56,2v9.84c0,3.08.29,3.29,2.7,3.71V311H89.2v-.51c2.66-.38,2.79-.76,2.79-3.67v-8.53c0-2.62-.13-2.88-2.15-3.42v-.43a16.08,16.08,0,0,0,5-1.77c0,.76-.13,1.9-.08,3.42.8-.63,1.81-1.35,2.87-2.07a5.84,5.84,0,0,1,3.17-1.18c3.21,0,5.06,2.45,5.06,6.25v7.81c0,3,.26,3.21,2.41,3.59V311Z"/><path class="cls-2" d="M125.32,307.33c-1.78,2.28-4.39,4.18-6.67,4.18-4.86,0-7.86-4.06-7.86-8.28a9.7,9.7,0,0,1,4.1-8.11,10.9,10.9,0,0,1,5.78-2.28,5.66,5.66,0,0,1,3.68,1.1,1.15,1.15,0,0,1,.46.93c0,.71-.8,1.64-1.22,1.64-.17,0-.3-.08-.72-.46a6.21,6.21,0,0,0-4.1-1.48c-2.91,0-5.28,1.73-5.32,6.63,0,6,4.14,8,6.42,8a6.41,6.41,0,0,0,5.07-2.28Z"/><path class="cls-2" d="M136.3,292.84c5,0,8.53,4.05,8.53,9,0,6.38-4.6,9.68-8.57,9.68a8.77,8.77,0,0,1-8.66-9C127.6,295.88,132.8,292.84,136.3,292.84Zm-.51.89c-2.95,0-5,3.16-5,7.47,0,5.66,2.54,9.34,6,9.34,2.66,0,4.81-2,4.81-8C141.62,298,139.64,293.73,135.79,293.73Z"/><path class="cls-2" d="M158.31,311v-.51c2.62-.33,2.79-.63,2.79-3.92V300c0-2.58-.8-5.07-3.8-5.07a7,7,0,0,0-4.57,2v9.84c0,3.08.3,3.29,2.71,3.71V311H147.2v-.51c2.66-.38,2.79-.76,2.79-3.67v-8.53c0-2.62-.13-2.88-2.15-3.42v-.43a16.08,16.08,0,0,0,5-1.77c0,.76-.13,1.9-.09,3.42.81-.63,1.82-1.35,2.88-2.07a5.84,5.84,0,0,1,3.16-1.18c3.21,0,5.07,2.45,5.07,6.25v7.81c0,3,.26,3.21,2.41,3.59V311Z"/><path class="cls-2" d="M171.28,293.35v-.68c0-3.89.89-7.69,4.1-10.26a8.83,8.83,0,0,1,4.43-1.9,4.32,4.32,0,0,1,3.08,1.22,1.15,1.15,0,0,1,.17,1.39,2.63,2.63,0,0,1-.84,1.1c-.38.21-.63.26-1,0a5.34,5.34,0,0,0-3.72-1.65c-3.38,0-3.51,4.18-3.51,9.29v1.53h4.1a1.21,1.21,0,0,1-.29,1.14H174v11.65c0,3.72.3,4,3.38,4.35V311h-9v-.51c2.49-.29,2.83-.59,2.83-3.76V294.49h-2.7l-.13-.22.46-.92Z"/><path class="cls-2" d="M197.76,310a21.29,21.29,0,0,0-5.66,1.48c.05-.64.13-2.12.13-3.3-2,2-4,3.25-6,3.3-2.62,0-4.81-1.57-4.81-5.75v-8.91c0-1.81-.59-2.2-1.69-2.45l-.76-.17v-.46a41.15,41.15,0,0,0,5.28-.72c-.09.84-.13,2.15-.13,5.7v5.75c0,3.8,1.77,4.81,3.63,4.81a5.56,5.56,0,0,0,4.48-2v-10c0-2.24-.51-2.58-2.07-2.88l-1-.17v-.5a32.59,32.59,0,0,0,5.79-.72v13.6c0,2.32.33,2.53,1.77,2.7l1,.13Z"/><path class="cls-2" d="M210.77,311v-.51c2.62-.33,2.79-.63,2.79-3.92V300c0-2.58-.8-5.07-3.8-5.07a7,7,0,0,0-4.56,2v9.84c0,3.08.29,3.29,2.7,3.71V311h-8.23v-.51c2.66-.38,2.78-.76,2.78-3.67v-8.53c0-2.62-.12-2.88-2.15-3.42v-.43a16.08,16.08,0,0,0,5-1.77c0,.76-.12,1.9-.08,3.42.8-.63,1.82-1.35,2.87-2.07a5.9,5.9,0,0,1,3.17-1.18c3.21,0,5.07,2.45,5.07,6.25v7.81c0,3,.25,3.21,2.4,3.59V311Z"/><path class="cls-2" d="M240.05,310a25.63,25.63,0,0,0-5.79,1.52c0-.93.09-1.95.09-2.88-1.1.72-2.45,1.57-3.59,2.16a5.47,5.47,0,0,1-2.28.72c-3.17,0-7.23-3.21-7.23-8.75a10.19,10.19,0,0,1,10.18-9.92,9.34,9.34,0,0,1,2.92.38v-7.35c0-2.75-.22-3.21-3.17-3.55v-.46a22.4,22.4,0,0,0,6.08-1.35c-.08.88-.17,3.63-.17,5.28v20.56c0,2.12.3,2.71,1.77,3l1.19.21Zm-5.7-13.86c-1-1.43-3-2-4.82-2-2.36,0-5.24,1.39-5.24,7.3,0,5.2,3,8,5.92,8a6.14,6.14,0,0,0,4.14-1.56Z"/><path class="cls-2" d="M241.82,311v-.51c2.62-.42,2.79-.63,2.79-3.67v-8.49c0-2.87-.17-3.08-2.41-3.51v-.42a22.52,22.52,0,0,0,5.24-1.65c0,.85-.08,3.34-.08,5.24v8.79c0,3.12.25,3.29,2.79,3.71V311Zm4-23.65a1.85,1.85,0,0,1-1.77-1.78,1.8,1.8,0,0,1,1.82-1.81,1.74,1.74,0,0,1,1.77,1.81A1.8,1.8,0,0,1,245.79,287.35Z"/><path class="cls-2" d="M260.87,293.13a3.62,3.62,0,0,1,1.36-.29c4.26,0,7.85,3.38,7.85,8.45A10.09,10.09,0,0,1,260,311.51a16.75,16.75,0,0,1-5.7-1.35c.08-1.06.08-2.16.08-3.21V286.21c0-2.92-.17-3.34-2.74-3.8v-.47a21.61,21.61,0,0,0,5.57-1.43c-.08,1.22-.12,3.84-.12,5.53v8.74Zm-3.75,13.35a4.11,4.11,0,0,0,.21,1.52c.33,1.06,2.11,2.24,4.56,2.24,3.59,0,5.07-3.21,5.07-7.77s-2.66-7.65-6.51-7.65a7.9,7.9,0,0,0-3.33.64Z"/><path class="cls-2" d="M272.07,311v-.51c2.45-.38,2.79-.59,2.79-3.71V286.46c0-3.38-.21-3.63-2.71-4v-.51a20.25,20.25,0,0,0,5.54-1.43c0,1.09-.13,3-.13,5.87v20.4c0,3,.17,3.29,2.7,3.71V311Z"/><path class="cls-2" d="M296.7,307.45c-2.45,3.13-5.12,4.06-6.3,4.06-5,0-7.85-4.18-7.85-8.79a10.12,10.12,0,0,1,2.53-7,8.56,8.56,0,0,1,5.87-2.91,5.8,5.8,0,0,1,5.83,5.62c0,.63,0,1-.21,1.05-.8.3-5.75.55-11.4.64-.13,6.75,3.59,9,6.58,9a6.59,6.59,0,0,0,4.61-2.15ZM289.77,294c-2.07,0-3.93,1.56-4.48,5.07a78,78,0,0,0,8.15-.13c.21,0,.3-.25.3-.68C293.74,296.17,292.51,294,289.77,294Z"/><path class="cls-2" d="M301.85,311.51a1.91,1.91,0,0,1-1.94-2,1.93,1.93,0,0,1,1.94-2,2,2,0,0,1,2,2A2,2,0,0,1,301.85,311.51Z"/><path class="cls-2" d="M486.51,116.47v-1.78c5.23-.51,5.42-.9,5.36-7.72l.06-26c-5.23,11.67-13.65,29.91-15.88,35.52h-1.66c-2.16-5.8-9.37-23.34-14.22-34.89C459.09,103.91,459,109,459,110.16c.07,3.57,1.66,4.08,6,4.53v1.78H449.9v-1.78c3.7-.39,5.23-1.15,5.74-4.6.38-2.8.45-5.1,2.11-28.38.25-3.32-.39-4.4-6-4.91V75h11.1l14.09,32.34L492.06,75h11.16V76.8c-5.48.64-6.18,1.21-6.06,5.68l.26,24.49c.25,6.82.45,7.14,6.06,7.72v1.78Z"/><path class="cls-2" d="M553.22,116.47v-1.78c5.23-.58,5.74-.83,5.74-6.25V83.12c0-5.49-.51-5.75-5.74-6.32V75h17.09V76.8c-5.29.57-5.8.83-5.8,6.32v25.32c0,5.48.51,5.67,5.8,6.25v1.78Z"/><path class="cls-2" d="M642.7,84.71c-1.09-4.21-2.87-8.36-8.87-8.36-5,0-6.69,3.64-6.69,7,0,4.4,2.8,6.63,8.1,9.37,7.65,4,11,6.89,11,12.95,0,6.7-5.81,11.8-14,11.8a26.57,26.57,0,0,1-9.75-2.11,85,85,0,0,1-1.73-9.56l2-.51c1.28,4.27,4.08,9.82,10.72,9.82a7,7,0,0,0,7.39-7.34c0-4.91-2.61-6.88-8.22-10-6.7-3.63-10.46-6.69-10.46-12.62,0-5.68,4.72-11,13.14-11a41.14,41.14,0,0,1,8.41,1.21c.26,2.3.51,4.85,1,9Z"/><path class="cls-2" d="M696.52,116.47v-1.78c5.23-.58,5.74-.83,5.74-6.25V83.12c0-5.49-.51-5.75-5.74-6.32V75h17.1V76.8c-5.3.57-5.81.83-5.81,6.32v25.32c0,5.48.51,5.67,5.81,6.25v1.78Z"/><path class="cls-2" d="M785.49,74.12c10.91,0,20.67,8.36,20.67,21,0,13.71-9.32,22.26-21,22.26-12.25,0-21.18-9.31-21.18-21.3C763.93,84.71,772,74.12,785.49,74.12Zm-1.27,2.36c-7.15,0-13.65,6-13.65,17.92S777.07,115,786.13,115c7.72,0,13.52-5.74,13.52-18.06C799.65,83.56,792.57,76.48,784.22,76.48ZM781.6,69.4l10.59-9.76a11.75,11.75,0,0,1,4.53,3.45l-.07.51L782.88,71Z"/><path class="cls-2" d="M900.67,76.8c-4.08.45-5.42,1.08-5.61,4-.06,2-.19,4.72-.19,10.65v25.58h-2.42l-27.3-33.36V99.63c0,5.74.19,8.61.32,10.46.12,3.26,1.72,4.21,6.31,4.6v1.78h-15.5v-1.78c4-.32,5.49-1.28,5.74-4.4.19-2.05.32-4.92.32-10.72V83.31a5.55,5.55,0,0,0-1.28-4.21c-1.21-1.6-2.55-2-5.67-2.3V75H865l27,32.09V91.47c0-5.93-.13-8.67-.32-10.59-.19-2.87-1.66-3.76-6.76-4.08V75h15.75Z"/></g></g></svg>