<svg xmlns="http://www.w3.org/2000/svg" viewBox="0 0 266.35 47.38"><defs><style>.cls-1{fill:#fff;}</style></defs><g id="Capa_2" data-name="Capa 2"><g id="Capa_3" data-name="Capa 3"><path class="cls-1" d="M71.17,3.65c-.37-1.45-1-2.88-3-2.88a2.19,2.19,0,0,0-2.31,2.39c0,1.52,1,2.29,2.79,3.23,2.64,1.37,3.78,2.38,3.78,4.46,0,2.31-2,4.07-4.83,4.07a9,9,0,0,1-3.36-.73,30.12,30.12,0,0,1-.6-3.29l.68-.18c.44,1.48,1.41,3.39,3.7,3.39a2.41,2.41,0,0,0,2.54-2.53c0-1.69-.9-2.37-2.83-3.43-2.31-1.25-3.6-2.31-3.6-4.35S65.7,0,68.6,0a13.86,13.86,0,0,1,2.9.42c.09.79.18,1.67.36,3.1Z"/><path class="cls-1" d="M97.17,0a7.06,7.06,0,0,1,7.12,7.25c0,4.72-3.21,7.67-7.25,7.67a7.16,7.16,0,0,1-7.3-7.34A7.33,7.33,0,0,1,97.17,0Zm-.44.81C94.27.81,92,2.88,92,7s2.24,7.09,5.36,7.09c2.66,0,4.66-2,4.66-6.21C102.05,3.25,99.61.81,96.73.81Z"/><path class="cls-1" d="M133.91,14.59V14c1.8-.17,1.87-.3,1.84-2.65l0-9c-1.81,4-4.71,10.31-5.47,12.24h-.58c-.74-2-3.23-8-4.9-12-.37,7.69-.39,9.43-.39,9.84,0,1.23.57,1.41,2.06,1.56v.62h-5.2V14c1.27-.13,1.8-.39,2-1.58.14-1,.16-1.76.73-9.77.09-1.15-.13-1.52-2.07-1.7V.31h3.83l4.85,11.14L135.82.31h3.85V.92c-1.89.22-2.13.42-2.09,2l.09,8.44c.08,2.35.15,2.46,2.08,2.65v.62Z"/><path class="cls-1" d="M164.34,0a7.06,7.06,0,0,1,7.12,7.25c0,4.72-3.21,7.67-7.25,7.67a7.15,7.15,0,0,1-7.29-7.34A7.32,7.32,0,0,1,164.34,0Zm-.44.81c-2.46,0-4.7,2.07-4.7,6.18s2.24,7.09,5.36,7.09c2.66,0,4.66-2,4.66-6.21C169.22,3.25,166.78.81,163.9.81Z"/><path class="cls-1" d="M196.47,3.65c-.37-1.45-1-2.88-3.05-2.88a2.19,2.19,0,0,0-2.31,2.39c0,1.52,1,2.29,2.79,3.23,2.64,1.37,3.78,2.38,3.78,4.46,0,2.31-2,4.07-4.84,4.07a9,9,0,0,1-3.36-.73,30.5,30.5,0,0,1-.59-3.29l.68-.18c.44,1.48,1.41,3.39,3.69,3.39a2.42,2.42,0,0,0,2.55-2.53c0-1.69-.9-2.37-2.83-3.43-2.31-1.25-3.61-2.31-3.61-4.35S191,0,193.9,0a13.86,13.86,0,0,1,2.9.42c.09.79.17,1.67.35,3.1Z"/><path class="cls-1" d="M6.11,32.77c3.1,0,5.05.61,6.41,1.91a6.33,6.33,0,0,1,1.87,4.7,7.19,7.19,0,0,1-2.75,5.93,10.4,10.4,0,0,1-6.5,1.74H0v-.62c1.89-.17,2-.33,2-2.13V35.54c0-1.89-.27-2-2-2.16v-.61ZM3.89,44.13c0,1.64.7,2.11,2.35,2.11,4,0,6-2.71,6-6.55,0-2.4-.82-4.22-2.55-5.28a7,7,0,0,0-3.76-.87,3.22,3.22,0,0,0-1.74.3c-.19.13-.28.38-.28,1.23Z"/><path class="cls-1" d="M31.77,47.05v-.62c1.81-.19,2-.28,2-2.15V35.56c0-1.89-.17-2-2-2.18v-.61h5.89v.61c-1.82.2-2,.29-2,2.18v8.72c0,1.89.18,2,2,2.15v.62Z"/><path class="cls-1" d="M64.58,36.19a6.8,6.8,0,0,0-.68-1.62c-.42-.75-.75-.92-2-.92H59.57c-.64,0-.7.06-.7.7v5.07h2.72c1.58,0,1.69-.26,2-1.8h.66v4.59h-.68c-.28-1.53-.44-1.88-2-1.88H58.87v3.93c0,1.91.22,2,2.22,2.17v.62H55v-.62c1.78-.13,2-.28,2-2.17v-8.7c0-1.91-.22-2-2-2.18v-.61h7c2,0,2.73,0,3.1-.05,0,.79.11,2.33.22,3.39Z"/><path class="cls-1" d="M93.81,43.55c-.14.58-.73,2.84-1,3.5H82.18v-.62c2-.15,2.2-.35,2.2-2.15V35.6c0-2-.24-2.06-1.89-2.22v-.61h6.72c2.07,0,2.93,0,3.19-.05,0,.55.11,2.2.2,3.36l-.66.11a7.83,7.83,0,0,0-.66-1.67c-.35-.72-.86-.87-2.18-.87H87c-.69,0-.73.06-.73.7v4.86h2.44c1.65,0,1.76-.33,2-1.83h.68v4.53h-.68c-.28-1.58-.46-1.8-2-1.8H86.29v4.37c0,1.54.48,1.67,1.58,1.69h2c1.34,0,1.56-.2,2-.77a9.36,9.36,0,0,0,1.19-2Z"/><path class="cls-1" d="M123.73,47.22c-.28,0-.52,0-.81,0a3.92,3.92,0,0,1-3.43-1.89c-.81-1.12-1.6-2.5-2.3-3.62-.44-.71-.73-.84-1.85-.84h-.77v3.45c0,1.87.24,2,2,2.15v.62h-5.86v-.62c1.82-.19,2-.28,2-2.15V35.51c0-1.86-.24-1.93-2-2.13v-.61h5.6a6.18,6.18,0,0,1,3.51.74,3.29,3.29,0,0,1,1.5,2.9,4.07,4.07,0,0,1-2.84,3.78c.4.69,1.34,2.16,2,3.15a19.58,19.58,0,0,0,1.74,2.26,3.13,3.13,0,0,0,1.6,1Zm-8.1-7.14a3.53,3.53,0,0,0,2.41-.63,3.09,3.09,0,0,0,1.21-2.71,3,3,0,0,0-3.25-3.2,1.91,1.91,0,0,0-1.16.22c-.2.15-.27.37-.27.94v5.38Z"/><path class="cls-1" d="M150.94,43.55c-.13.58-.73,2.84-.95,3.5H139.31v-.62c2.05-.15,2.2-.35,2.2-2.15V35.6c0-2-.24-2.06-1.89-2.22v-.61h6.73c2.06,0,2.92,0,3.18-.05,0,.55.11,2.2.2,3.36l-.66.11a7.83,7.83,0,0,0-.66-1.67c-.35-.72-.86-.87-2.17-.87h-2.09c-.68,0-.73.06-.73.7v4.86h2.44c1.65,0,1.76-.33,2-1.83h.68v4.53h-.68c-.28-1.58-.46-1.8-2-1.8h-2.42v4.37c0,1.54.49,1.67,1.58,1.69h2.05c1.34,0,1.56-.2,2-.77a9.36,9.36,0,0,0,1.19-2Z"/><path class="cls-1" d="M183,33.38c-1.41.16-1.87.38-1.93,1.39,0,.7-.07,1.62-.07,3.67v8.81h-.83l-9.41-11.5v5.5c0,2,.07,3,.11,3.6,0,1.12.59,1.45,2.18,1.58v.62h-5.34v-.62c1.36-.11,1.89-.44,2-1.51.07-.71.11-1.69.11-3.69V35.62a2,2,0,0,0-.43-1.45c-.42-.55-.88-.68-2-.79v-.61h3.29l9.32,11V38.44c0-2,0-3-.11-3.65-.06-1-.57-1.3-2.33-1.41v-.61H183Z"/><path class="cls-1" d="M211.52,36.22a8.57,8.57,0,0,0-.7-1.83c-.35-.59-.57-.74-1.78-.74h-2.2v10.7c0,1.71.18,1.95,2.26,2.08v.62h-6.39v-.62c2-.13,2.22-.35,2.22-2.08V33.65h-2c-1.21,0-1.56.13-1.93.79a9.65,9.65,0,0,0-.73,1.78h-.66c.13-1.34.27-2.73.33-4h.51c.33.53.57.51,1.18.51h8.7a1.12,1.12,0,0,0,1.13-.51H212c0,1,.09,2.62.2,3.89Z"/><path class="cls-1" d="M240.61,43.55c-.13.58-.72,2.84-.94,3.5H229v-.62c2-.15,2.2-.35,2.2-2.15V35.6c0-2-.24-2.06-1.89-2.22v-.61H236c2.07,0,2.92,0,3.19-.05,0,.55.11,2.2.2,3.36l-.66.11a7.83,7.83,0,0,0-.66-1.67c-.35-.72-.86-.87-2.18-.87h-2.09c-.68,0-.72.06-.72.7v4.86h2.44c1.65,0,1.76-.33,2-1.83h.68v4.53h-.68c-.29-1.58-.46-1.8-2-1.8H233.1v4.37c0,1.54.48,1.67,1.58,1.69h2c1.35,0,1.57-.2,2.05-.77a9.36,9.36,0,0,0,1.19-2Z"/><path class="cls-1" d="M265.14,36.11c-.38-1.45-1-2.88-3.06-2.88a2.18,2.18,0,0,0-2.3,2.39c0,1.52,1,2.29,2.79,3.23,2.63,1.36,3.78,2.38,3.78,4.46,0,2.31-2,4.07-4.84,4.07a9.17,9.17,0,0,1-3.36-.73,28.2,28.2,0,0,1-.59-3.29l.68-.18c.44,1.47,1.4,3.39,3.69,3.39A2.42,2.42,0,0,0,264.48,44c0-1.69-.9-2.37-2.84-3.43-2.3-1.25-3.6-2.31-3.6-4.35s1.63-3.8,4.53-3.8a14,14,0,0,1,2.9.42c.08.79.17,1.67.35,3.09Z"/></g></g></svg>